<?xml version="1.0" standalone="no"?>
<!DOCTYPE svg PUBLIC "-//W3C//DTD SVG 20010904//EN"
 "http://www.w3.org/TR/2001/REC-SVG-20010904/DTD/svg10.dtd">
<svg version="1.0" xmlns="http://www.w3.org/2000/svg"
 width="215.000000pt" height="215.000000pt" viewBox="0 0 215.000000 215.000000"
 preserveAspectRatio="xMidYMid meet">
<metadata>
Created by potrace 1.15, written by Peter Selinger 2001-2017
</metadata>
<g transform="translate(0.000000,215.000000) scale(0.100000,-0.100000)"
fill="#000000" stroke="none">
<path d="M570 2142 c0 -5 7 -17 15 -28 8 -10 15 -23 15 -28 0 -9 -72 -2 -104
10 -17 7 -18 3 -13 -47 3 -30 8 -64 12 -76 7 -21 4 -23 -36 -24 -24 0 -52 -4
-62 -8 -17 -6 -17 -8 5 -19 25 -14 68 -71 68 -90 0 -16 -13 -15 -55 5 -45 22
-55 11 -19 -21 27 -23 27 -25 8 -26 -28 0 -37 -11 -19 -24 13 -10 14 -22 4
-91 -13 -91 -6 -327 12 -420 6 -33 12 -67 13 -75 3 -17 6 -30 53 -205 45 -167
58 -180 48 -50 -5 55 -8 206 -8 335 0 263 6 291 79 391 57 78 65 81 201 69
247 -21 450 -31 510 -27 54 4 112 25 204 75 4 1 11 -10 17 -25 5 -16 33 -58
62 -93 29 -36 60 -83 70 -105 23 -51 36 -235 33 -464 -1 -95 -1 -172 1 -170 6
6 65 232 71 270 3 19 8 77 10 129 3 52 10 152 16 221 16 174 9 281 -25 346
-15 31 -22 54 -16 58 18 11 10 25 -14 25 -28 0 -45 19 -27 30 15 9 -73 70
-100 70 -10 0 -21 5 -25 11 -3 6 -30 26 -60 45 l-53 34 -446 0 c-245 0 -445
-4 -445 -8z"/>
<path d="M609 1322 c-39 -25 -69 -52 -57 -52 2 0 28 9 58 21 50 19 67 20 198
14 129 -6 145 -5 163 10 10 10 19 21 19 24 0 3 -75 7 -168 9 l-167 3 -46 -29z"/>
<path d="M1170 1339 c0 -3 9 -14 19 -23 18 -16 35 -17 168 -11 138 7 152 6
203 -15 l55 -22 -24 26 c-49 52 -78 58 -257 54 -90 -1 -164 -6 -164 -9z"/>
<path d="M802 211 c-19 -12 -5 -114 19 -145 11 -13 19 -29 19 -35 0 -6 17 -11
39 -11 35 0 94 25 176 74 l30 19 55 -35 c100 -63 174 -76 190 -34 5 13 14 27
19 31 6 3 11 16 11 27 0 12 5 36 12 54 9 26 9 36 -1 48 -18 22 -54 20 -181 -9
l-109 -24 -108 24 c-115 26 -150 30 -171 16z"/>
</g>
</svg>
