<?xml version="1.0" standalone="no"?>
<!DOCTYPE svg PUBLIC "-//W3C//DTD SVG 20010904//EN"
 "http://www.w3.org/TR/2001/REC-SVG-20010904/DTD/svg10.dtd">
<svg version="1.0" xmlns="http://www.w3.org/2000/svg"
 width="1365.000000pt" height="1365.000000pt" viewBox="0 0 1365.000000 1365.000000"
 preserveAspectRatio="xMidYMid meet">
<metadata>
Created by potrace 1.15, written by Peter Selinger 2001-2017
</metadata>
<g transform="translate(0.000000,1365.000000) scale(0.100000,-0.100000)"
fill="#000000" stroke="none">
<path d="M1 11623 c1 -1116 5 -2014 9 -1998 7 29 8 29 10 5 5 -44 0 -71 -14
-82 -13 -9 14 -33 45 -41 20 -5 33 -1 53 18 29 27 32 35 12 35 -9 0 -12 8 -8
26 3 17 -3 33 -18 50 -27 28 -45 32 -32 7 5 -10 7 -24 5 -31 -3 -7 -1 -12 4
-11 20 4 34 -2 28 -11 -4 -6 -11 -8 -16 -5 -5 4 -12 -1 -15 -9 -3 -9 -12 -16
-20 -16 -10 0 -11 6 -5 22 4 13 5 35 0 50 -6 22 -4 28 12 33 30 10 23 28 -8
20 l-28 -7 23 20 c23 20 23 20 3 27 -22 7 -28 29 -11 40 6 3 10 -3 10 -13 0
-18 18 -32 41 -32 5 0 9 14 9 30 0 17 4 30 9 30 6 0 8 -12 7 -27 -2 -16 -4
-34 -5 -40 0 -7 -7 -13 -14 -13 -7 0 -13 -9 -13 -20 0 -12 6 -19 15 -17 9 1
16 -4 16 -12 0 -8 6 -16 13 -19 10 -3 11 3 6 25 -4 15 -6 37 -5 48 2 11 3 33
3 48 0 25 4 28 24 24 20 -3 22 -2 13 9 -9 11 -7 14 8 14 18 0 83 27 83 34 0 2
-21 2 -48 1 -30 -1 -46 -7 -44 -14 3 -17 -40 -10 -46 7 -2 7 5 12 17 12 13 0
21 6 21 18 0 11 3 13 8 5 9 -14 32 -18 55 -8 9 4 26 5 37 2 11 -3 18 -1 14 4
-3 5 2 9 11 9 9 0 13 5 10 11 -8 12 33 59 52 59 7 0 13 5 13 10 0 12 -30 13
-46 2 -5 -4 -18 -24 -27 -44 -10 -21 -22 -38 -28 -38 -6 0 -7 4 -4 10 3 5 1
18 -5 27 -9 16 -10 15 -8 -7 3 -21 -2 -26 -26 -28 -37 -5 -48 8 -30 32 10 14
27 20 56 21 23 1 43 6 46 13 2 7 -3 12 -12 12 -9 0 -16 5 -16 11 0 6 9 8 20 4
11 -3 20 -2 20 3 0 5 10 12 21 15 19 5 21 11 16 41 -4 22 -1 36 6 39 7 3 5 8
-7 12 -11 5 -21 3 -26 -5 -7 -11 -11 -11 -24 -1 -10 8 -16 9 -16 3 0 -6 9 -14
20 -17 11 -3 20 -11 20 -16 0 -11 -37 -3 -56 12 -15 12 -24 0 -24 -33 0 -15
-4 -28 -9 -28 -5 0 -7 18 -4 40 5 39 5 40 -23 40 -25 1 -26 2 -11 11 9 6 32 9
49 7 26 -3 31 1 33 19 2 27 16 43 22 26 10 -27 21 -11 18 25 -1 20 2 43 7 50
8 9 6 12 -6 12 -9 0 -16 8 -16 20 0 11 5 20 10 20 6 0 10 -5 10 -11 0 -17 27
-39 49 -39 14 0 21 6 21 20 0 18 16 26 43 21 5 -1 7 4 4 11 -5 13 -10 14 -37
4 -8 -3 -25 3 -37 13 -25 21 -42 71 -24 71 6 0 11 -11 11 -24 0 -24 21 -36 68
-36 27 0 56 -25 47 -40 -3 -5 -15 -10 -26 -10 -10 0 -19 -5 -19 -11 0 -5 4 -8
9 -4 5 3 12 1 16 -5 11 -18 22 -11 39 24 17 37 22 60 6 36 -13 -20 -24 -6 -12
16 10 18 52 28 52 12 0 -5 -7 -16 -15 -24 -19 -19 -8 -44 19 -44 20 1 20 1 3
14 -12 9 -14 16 -8 21 18 10 12 43 -10 58 -29 21 -6 32 24 12 29 -18 65 -87
37 -70 -13 8 -13 -5 0 -25 7 -12 11 -10 18 10 6 15 6 27 0 31 -19 12 -18 59 2
79 25 25 25 25 -5 26 -14 1 -25 -2 -25 -7 0 -5 5 -9 12 -9 9 0 9 -3 1 -11 -13
-13 -43 -5 -43 11 0 6 5 8 12 4 8 -5 9 -2 5 9 -3 10 -2 17 3 17 6 0 10 8 10
18 0 14 -2 15 -10 2 -8 -13 -10 -12 -10 3 0 9 6 17 13 17 8 0 20 18 27 40 9
29 18 39 28 35 8 -3 22 0 31 7 14 12 14 11 -1 -12 -9 -14 -23 -24 -32 -22 -9
2 -16 -2 -16 -8 0 -5 5 -10 10 -10 6 0 10 -5 10 -11 0 -6 -6 -9 -14 -6 -9 4
-13 -4 -14 -24 0 -16 4 -29 9 -29 5 0 9 6 9 13 0 8 4 7 11 -3 9 -12 10 -11 6
5 -2 11 2 26 8 32 10 9 13 5 13 -15 0 -15 -5 -33 -11 -40 -14 -17 -6 -23 40
-28 40 -4 74 9 59 23 -5 4 -11 2 -13 -4 -8 -23 -30 -14 -30 12 0 27 7 31 24
14 9 -9 16 -8 28 5 9 9 13 16 9 16 -4 0 5 9 20 21 15 11 33 19 40 16 8 -3 17
-3 20 1 4 3 19 8 34 10 15 2 31 7 35 11 11 11 -26 10 -40 -2 -9 -6 -13 -6 -13
3 0 9 -4 9 -17 -1 -15 -13 -16 -11 -10 10 4 18 1 24 -14 28 -19 5 -19 7 -3 24
9 10 21 16 26 13 5 -3 14 -1 21 5 8 6 18 6 27 1 11 -7 8 -11 -15 -20 -22 -8
-30 -8 -37 2 -4 8 -8 8 -8 2 0 -6 8 -18 18 -27 20 -18 37 -23 27 -8 -3 6 3 15
14 20 27 15 31 14 31 -6 0 -15 2 -16 10 -3 9 15 12 11 14 -20 2 -19 37 -14 54
8 14 18 12 34 -5 39 -7 3 -9 -4 -6 -16 4 -15 1 -21 -10 -21 -10 0 -13 6 -10
21 5 16 1 20 -13 19 -10 -1 -24 -2 -30 -1 -13 1 -14 51 -1 51 5 0 6 9 2 20 -7
22 10 60 27 60 7 0 7 -4 1 -12 -19 -25 -23 -48 -8 -48 8 0 15 7 15 15 0 8 5
15 10 15 6 0 10 -5 10 -11 0 -14 -25 -39 -39 -39 -6 0 -11 -9 -11 -20 0 -15 6
-19 25 -18 14 1 25 7 25 13 0 5 4 3 10 -5 8 -12 10 -12 16 3 7 19 39 23 49 7
4 -6 11 -8 16 -4 5 3 6 10 3 16 -5 8 -1 9 10 5 10 -4 20 -7 22 -7 2 0 4 -4 4
-10 0 -5 -7 -7 -15 -4 -19 8 -19 -13 0 -32 13 -14 17 -14 30 0 8 8 12 22 9 30
-4 10 -1 16 9 16 8 0 18 7 21 16 9 24 7 27 -10 10 -18 -18 -30 -20 -39 -6 -3
6 1 10 11 10 9 0 22 7 28 16 13 17 46 9 46 -11 0 -7 -11 -22 -24 -32 -13 -10
-27 -29 -31 -42 -6 -20 -5 -22 11 -13 18 10 44 -5 44 -26 0 -16 31 -23 44 -9
14 13 10 37 -6 37 -6 0 -8 -7 -4 -15 3 -9 0 -15 -10 -15 -8 0 -13 4 -10 9 3 4
-3 16 -14 26 -24 22 -26 41 -4 49 23 9 31 7 14 -4 -8 -5 -11 -13 -6 -17 5 -4
11 -2 13 5 8 20 26 13 20 -8 -3 -13 0 -20 8 -20 7 0 21 -3 29 -6 12 -5 15 -2
9 12 -5 13 -3 16 10 11 18 -7 24 8 7 18 -14 8 -13 45 1 45 6 0 9 -7 6 -15 -4
-9 5 -20 25 -30 37 -18 38 -18 38 -5 0 6 -8 10 -17 10 -14 0 -12 5 10 24 34
29 35 62 2 88 -20 15 -23 23 -15 33 9 10 6 15 -12 18 -13 3 -3 4 22 2 51 -3
91 7 72 19 -16 10 -15 26 2 26 22 0 25 -47 5 -80 -11 -17 -19 -37 -19 -46 0
-9 -5 -12 -12 -8 -8 5 -9 2 -5 -10 4 -10 7 -22 7 -27 0 -26 18 5 24 41 4 26
11 40 21 40 8 0 15 6 15 13 0 6 12 -3 26 -20 26 -34 54 -44 54 -19 0 8 3 23 7
33 3 10 3 15 -2 11 -4 -4 -14 -3 -22 3 -8 8 -13 8 -13 1 0 -6 5 -12 12 -14 6
-2 9 -9 7 -16 -3 -7 -13 -4 -29 8 -25 20 -22 29 15 44 6 2 5 9 -2 17 -11 11
-13 10 -13 -3 0 -11 -8 -16 -20 -15 -23 1 -28 37 -5 37 9 0 12 6 9 15 -8 21 8
19 38 -4 24 -19 24 -19 26 4 1 13 -4 22 -11 21 -22 -2 -22 19 1 22 15 2 22 -2
22 -12 0 -9 4 -16 10 -16 5 0 7 7 4 15 -4 8 -1 15 5 15 6 0 11 -9 11 -20 0
-11 -7 -20 -15 -20 -8 0 -15 -4 -15 -10 0 -5 9 -10 20 -10 11 0 20 7 20 15 0
18 11 19 34 2 13 -9 18 -26 18 -60 0 -26 4 -49 9 -53 5 -3 9 5 9 18 0 17 9 27
31 35 18 7 36 10 40 7 5 -3 9 1 9 9 0 10 7 13 20 10 15 -4 11 3 -15 32 -34 35
-43 55 -27 55 4 0 13 -5 19 -11 13 -13 33 -4 33 16 0 7 -7 20 -15 29 -20 19
-10 24 48 21 53 -3 65 12 15 18 -28 3 -27 4 10 5 50 2 49 21 -1 23 -30 2 -30
2 -5 6 21 3 30 12 37 36 l10 32 -2 -35 c-2 -29 2 -36 21 -38 24 -4 29 7 10 26
-6 6 -8 15 -3 19 4 5 10 2 12 -5 3 -6 9 -10 14 -6 5 3 9 -6 9 -20 0 -20 6 -27
28 -32 15 -4 31 -12 35 -18 6 -8 10 -7 14 2 4 10 8 10 19 1 11 -9 18 -9 26 -1
18 18 30 14 23 -8 -8 -26 2 -41 22 -33 15 6 14 7 -2 13 -18 6 -17 8 3 28 28
28 28 30 -3 24 -16 -3 -25 0 -25 8 0 7 6 10 14 7 22 -9 28 5 8 19 -16 12 -16
13 0 14 27 0 48 -11 42 -24 -3 -6 6 2 20 17 30 33 31 40 10 61 -27 28 -10 37
18 11 30 -28 40 -31 37 -12 -4 31 2 46 16 41 11 -5 14 1 12 25 -1 17 -6 31
-12 31 -5 0 -4 5 3 12 7 7 12 24 12 39 0 15 6 30 13 32 7 3 5 6 -5 6 -14 1
-18 -7 -18 -30 0 -16 -4 -28 -9 -25 -7 5 -8 25 -2 59 0 4 8 7 16 7 8 0 15 7
15 15 0 8 5 15 10 15 9 0 11 -6 14 -49 1 -8 7 -16 15 -19 10 -3 12 0 8 12 -4
10 -1 16 8 16 8 0 15 5 15 10 0 6 -9 10 -19 10 -12 0 -21 9 -25 25 -8 31 -22
32 -32 3 -7 -22 -7 -22 -15 -3 -7 18 -8 18 -8 2 -1 -14 -6 -17 -21 -12 -17 5
-21 1 -26 -24 -7 -34 -11 -36 -34 -20 -12 9 -12 10 4 5 16 -5 18 -2 14 23 -3
18 0 28 6 24 5 -4 7 0 4 8 -3 8 -9 22 -13 31 -4 11 0 20 15 28 11 6 18 16 14
22 -7 10 13 28 31 28 6 0 3 -5 -5 -10 -13 -8 -12 -10 3 -10 9 0 17 -3 17 -8 0
-11 -43 -37 -57 -34 -17 4 -16 -6 1 -23 17 -17 57 -14 88 8 l23 16 -25 20 -25
21 28 0 c17 0 27 -5 27 -14 0 -8 4 -17 8 -20 5 -3 8 5 7 17 -3 29 5 42 16 26
6 -10 9 -8 9 9 0 12 5 22 11 22 7 0 9 -9 6 -21 -4 -15 -2 -19 9 -15 7 3 18 -3
24 -14 14 -25 13 -30 -5 -24 -8 4 -15 1 -15 -5 0 -6 11 -11 24 -11 21 0 24 -5
24 -40 1 -30 -4 -43 -19 -50 -10 -6 -19 -17 -19 -25 0 -8 -7 -15 -17 -15 -15
0 -15 -2 1 -19 18 -20 29 -81 15 -81 -4 0 -17 12 -28 26 -12 15 -21 23 -21 19
0 -4 -7 -2 -15 5 -12 10 -18 10 -31 -1 -15 -13 -17 -11 -12 19 2 18 1 35 -4
38 -4 3 -8 -18 -8 -46 0 -29 4 -49 9 -45 5 3 12 1 15 -4 7 -10 25 -9 43 2 7 4
21 -2 33 -15 14 -15 17 -24 9 -27 -6 -2 -16 4 -21 13 -7 12 -14 14 -28 6 -13
-7 -21 -7 -25 0 -12 19 -38 11 -32 -10 3 -11 1 -20 -4 -20 -5 0 -11 -11 -15
-25 -5 -20 -11 -24 -26 -19 -14 4 -18 2 -14 -5 12 -18 37 -13 43 9 4 16 8 18
19 9 10 -8 14 -8 14 0 0 6 -5 11 -11 11 -8 0 -9 4 0 13 6 8 8 17 4 20 -9 10
-1 9 36 -4 17 -6 31 -15 31 -21 0 -6 7 -8 15 -4 9 3 15 0 15 -8 0 -8 -7 -16
-15 -20 -8 -3 -15 -10 -15 -15 0 -6 7 -8 15 -5 8 4 15 1 15 -5 0 -6 -4 -11 -9
-11 -17 0 -9 -55 12 -77 11 -13 15 -23 9 -23 -7 0 -12 5 -12 10 0 6 -5 10 -11
10 -6 0 -8 -8 -5 -18 4 -11 -2 -28 -14 -42 -25 -29 -25 -41 1 -63 20 -18 20
-19 2 -32 -12 -10 -14 -14 -4 -15 11 0 11 -3 1 -15 -10 -12 -10 -15 4 -15 9 0
16 5 16 12 0 6 3 8 6 5 4 -4 1 -13 -6 -22 -10 -12 -10 -15 1 -15 8 0 5 -5 -6
-14 -14 -10 -17 -17 -9 -27 13 -18 6 -111 -8 -103 -10 7 -4 -68 7 -87 4 -5 1
-9 -4 -9 -6 0 -11 5 -11 11 0 5 -5 7 -11 3 -7 -4 -7 -9 -2 -13 16 -10 23 -41
10 -41 -7 -1 -4 -6 6 -14 15 -12 16 -14 2 -20 -8 -3 -15 -13 -15 -23 0 -15 2
-16 10 -3 5 8 12 12 15 8 3 -3 -2 -13 -11 -23 -16 -16 -16 -18 -1 -27 9 -5 17
-14 17 -19 0 -6 -4 -8 -9 -4 -6 3 -9 -20 -8 -54 1 -32 5 -57 8 -55 3 2 4 -8 1
-21 -2 -13 1 -39 7 -56 9 -27 8 -35 -6 -51 -16 -18 -16 -18 1 -12 16 6 17 1
14 -52 -3 -37 0 -72 9 -93 8 -19 13 -45 10 -58 -2 -13 -1 -26 3 -28 8 -5 4
-84 -5 -93 -3 -3 0 -11 7 -19 6 -7 8 -16 5 -20 -4 -3 -2 -12 4 -20 6 -7 7 -13
2 -13 -13 0 -13 -32 0 -47 7 -9 5 -13 -7 -13 -19 0 -21 -16 -3 -27 20 -12 30
-56 11 -49 -8 3 -14 1 -14 -4 0 -6 5 -10 11 -10 7 0 9 -11 6 -29 -3 -15 -1
-33 6 -40 8 -8 6 -11 -9 -11 -17 -1 -18 -1 -2 -11 13 -7 17 -20 14 -49 -2 -22
0 -40 5 -40 5 0 9 -12 8 -27 0 -25 -1 -26 -9 -8 -6 14 -9 15 -9 5 -1 -9 5 -22
11 -28 10 -10 10 -14 0 -21 -14 -8 -6 -71 9 -71 5 0 6 -28 2 -61 -5 -51 -3
-63 10 -71 24 -13 21 -31 -3 -25 -11 3 -23 1 -26 -4 -3 -5 5 -9 18 -9 17 0 23
-6 24 -22 0 -13 4 -30 8 -40 5 -11 2 -18 -11 -21 -13 -3 -12 -5 6 -6 24 -1 24
-1 5 -16 -18 -14 -18 -14 0 -15 12 0 16 -5 13 -15 -4 -8 -2 -17 3 -20 7 -4 6
-13 0 -26 -8 -13 -7 -19 0 -19 6 0 8 -5 4 -11 -3 -6 0 -15 7 -20 11 -7 12 -11
1 -17 -10 -7 -10 -15 -2 -37 6 -16 10 -41 8 -55 -1 -14 1 -30 5 -37 4 -6 3
-14 -3 -18 -5 -3 -10 -11 -10 -16 0 -6 5 -7 10 -4 13 8 21 -13 23 -62 1 -21 6
-44 10 -50 5 -7 6 -17 2 -22 -3 -5 -1 -12 4 -16 5 -3 9 -13 9 -23 0 -9 3 -26
7 -36 6 -15 5 -17 -5 -11 -15 9 -6 -9 17 -37 8 -9 16 -31 18 -50 1 -18 10 -52
19 -76 8 -23 13 -49 10 -57 -4 -8 -1 -15 6 -15 6 0 9 -4 5 -9 -3 -5 -1 -12 5
-16 6 -4 8 -11 4 -16 -3 -5 0 -16 6 -24 7 -8 10 -22 6 -30 -3 -9 -2 -13 4 -10
5 3 13 -12 16 -35 4 -22 10 -40 15 -40 5 0 9 -7 9 -15 0 -8 5 -15 10 -15 6 0
10 -8 10 -18 0 -10 7 -28 16 -40 8 -12 12 -22 7 -22 -4 0 1 -8 12 -17 16 -13
17 -15 3 -10 -10 4 -18 2 -18 -3 0 -6 8 -10 18 -10 14 0 15 -2 2 -10 -10 -6
-11 -10 -2 -10 6 0 12 -7 12 -15 0 -8 7 -15 16 -15 10 0 14 -6 11 -14 -4 -10
28 -49 86 -108 51 -51 91 -96 90 -100 -2 -5 2 -8 7 -8 6 0 10 -5 10 -10 0 -6
5 -16 10 -23 47 -55 58 -72 54 -79 -3 -4 0 -8 5 -8 6 0 11 -7 11 -15 0 -8 6
-15 13 -15 7 0 20 -16 27 -35 20 -51 33 -59 60 -35 13 11 18 20 12 20 -8 0 -9
8 -2 25 5 14 9 29 8 33 -1 4 3 17 10 30 7 12 10 28 6 34 -4 6 -8 39 -8 72 -1
34 -5 67 -9 74 -5 6 -4 12 1 12 14 0 21 63 10 78 -7 8 -7 12 1 12 7 0 10 4 6
9 -6 10 -17 111 -17 154 1 15 -2 27 -6 27 -4 0 -7 32 -7 72 0 40 -5 76 -11 82
-6 7 -12 34 -12 61 -1 81 -13 165 -23 165 -12 0 -4 47 11 65 8 9 7 14 -3 18
-16 6 -15 89 1 95 5 1 7 14 4 27 -2 15 0 25 7 25 7 0 9 5 6 11 -4 6 1 17 11
25 14 11 15 14 4 11 -13 -4 -15 2 -12 29 2 19 8 34 14 34 5 0 8 6 6 13 -1 6 3
21 9 33 7 12 8 25 2 35 -5 7 -9 25 -9 38 0 15 -5 21 -14 18 -9 -4 -13 3 -12
24 1 16 4 29 7 29 4 0 9 8 13 18 3 9 9 23 12 30 4 8 -2 12 -17 12 -20 0 -21 2
-7 18 8 9 18 28 21 40 5 20 2 23 -14 19 -25 -7 -37 13 -15 25 9 5 14 13 11 18
-3 4 7 11 21 14 20 5 25 12 22 34 -2 21 -8 27 -28 27 -15 0 -26 -6 -26 -15 -1
-8 -2 -23 -3 -32 0 -10 -8 -18 -17 -18 -8 0 -12 -5 -9 -10 4 -7 -2 -9 -19 -4
-16 4 -26 2 -26 -5 0 -6 7 -11 15 -11 13 0 14 -2 3 -14 -7 -8 -16 -12 -20 -9
-5 2 -8 -1 -8 -6 0 -6 -5 -11 -12 -11 -6 0 -4 7 5 18 10 10 14 22 10 25 -3 4
0 15 8 24 8 10 14 30 13 45 0 15 2 26 5 23 4 -2 18 5 31 16 l25 19 -27 0 c-14
0 -29 -6 -31 -12 -4 -8 -6 -7 -6 3 -1 9 -8 20 -17 23 -15 6 -14 17 3 64 3 6 0
12 -6 12 -6 0 -13 -10 -16 -23 -4 -14 -14 -23 -26 -23 -16 0 -19 5 -14 23 4
16 1 22 -7 21 -7 -2 -12 2 -11 9 2 7 -4 10 -12 7 -19 -8 -32 23 -16 39 8 8 5
17 -11 34 -12 13 -16 23 -10 23 7 0 12 -4 12 -10 0 -5 7 -10 15 -10 10 0 15
11 16 33 0 25 2 28 8 13 4 -11 10 -15 14 -10 3 6 1 16 -4 24 -8 13 -12 12 -25
-5 -12 -17 -16 -18 -24 -5 -5 8 -7 17 -4 21 2 4 -1 11 -6 14 -7 5 -5 12 7 21
16 12 15 13 -17 14 -19 1 -30 4 -24 6 6 3 9 17 6 32 -5 25 -4 26 13 12 16 -14
17 -13 11 7 -5 16 -1 25 16 37 19 14 20 16 5 16 -14 0 -17 5 -12 22 6 17 4 20
-9 15 -11 -5 -16 -1 -16 13 0 11 -6 20 -12 20 -8 0 -9 3 -3 8 6 4 16 18 22 32
6 14 12 19 12 11 1 -18 40 26 66 76 11 21 23 40 26 43 10 7 48 72 55 93 4 9
10 17 14 17 10 0 21 30 17 45 -1 6 -6 9 -10 7 -4 -1 2 11 14 27 12 17 18 34
14 42 -5 7 -4 10 3 5 6 -3 13 2 17 13 3 10 14 29 25 41 20 23 18 40 -5 40 -9
0 -11 8 -6 33 11 46 29 77 46 77 8 0 15 4 15 10 0 5 -7 7 -15 4 -13 -5 -12 -1
2 25 10 17 23 29 30 27 7 -3 10 0 7 7 -2 7 7 25 21 42 16 17 25 40 24 55 -1
14 2 33 6 44 5 12 3 21 -6 27 -8 5 -9 9 -4 9 6 0 20 -7 33 -15 20 -14 21 -14
16 0 -3 8 -1 15 5 15 14 0 14 27 0 36 -6 3 -15 1 -19 -6 -4 -7 -13 -10 -18 -6
-12 7 -6 32 13 56 14 17 15 26 19 125 2 45 9 82 21 105 11 19 20 52 21 73 2
30 10 46 38 72 39 36 45 48 19 38 -14 -6 -13 -2 4 23 12 16 37 45 57 64 19 19
36 41 36 47 0 7 9 18 20 25 22 14 28 33 8 23 -7 -4 0 4 17 17 16 13 32 23 35
23 4 0 21 16 38 37 23 25 38 35 52 31 11 -3 20 -10 20 -15 0 -5 6 -8 13 -7 15
3 87 -32 87 -42 0 -4 -7 -10 -16 -13 -9 -4 -14 -9 -11 -13 4 -3 13 0 22 7 8 7
25 14 38 15 35 5 68 21 121 59 28 19 52 33 55 30 3 -3 -1 -9 -9 -14 -13 -8
-12 -10 2 -10 9 0 20 5 24 11 3 6 15 8 26 6 13 -4 18 -1 15 7 -3 8 5 13 24 13
25 0 28 -3 23 -21 -6 -18 -3 -17 25 7 37 31 55 33 91 11 14 -9 17 -13 7 -10
-11 4 -31 9 -45 12 -23 5 -25 4 -9 -6 38 -24 290 -11 357 19 l25 11 -25 -4
c-76 -15 -224 -18 -279 -6 -73 15 -72 28 1 24 l53 -3 -50 12 -49 12 91 12 c51
7 123 25 160 40 68 26 117 32 163 19 24 -7 24 -7 -2 9 -16 8 -28 20 -28 25 0
14 37 31 53 24 8 -3 18 -1 22 5 3 6 1 11 -5 11 -6 0 -8 5 -5 10 5 9 36 -7 74
-37 3 -2 -5 -10 -17 -19 -12 -8 -22 -20 -22 -25 0 -5 13 0 29 12 16 12 34 18
40 14 16 -9 5 -22 -36 -44 -20 -10 -32 -21 -27 -24 6 -3 32 8 59 25 46 29 48
31 27 39 -28 10 -27 12 2 44 17 18 32 25 48 23 l23 -5 -25 -11 c-14 -6 -21
-11 -16 -11 6 -1 1 -8 -10 -17 -18 -14 -18 -15 6 -8 13 4 33 17 43 31 21 26
51 24 75 -6 12 -15 13 -14 8 2 -5 15 3 17 57 19 l62 2 -55 3 c-77 4 -97 10
-97 28 0 9 5 14 11 12 6 -2 30 15 54 37 42 39 144 90 157 78 3 -4 9 -2 13 4 4
6 27 21 52 34 25 12 51 27 59 34 7 6 19 11 25 12 6 0 17 2 24 2 6 1 12 9 12
17 0 8 4 15 9 15 13 0 7 -24 -18 -83 -12 -27 -21 -54 -21 -60 0 -18 36 46 61
110 8 22 12 25 20 13 7 -11 8 -6 4 17 -6 28 -4 31 15 26 17 -5 19 -8 8 -15
-10 -7 -10 -11 0 -15 6 -2 12 -13 12 -24 0 -17 2 -18 33 -4 36 15 88 29 100
26 5 -1 5 4 1 10 -4 8 3 9 26 4 29 -6 32 -5 26 10 -5 14 -4 16 7 7 8 -7 16
-10 18 -8 11 9 69 14 69 6 0 -6 -9 -10 -19 -10 -11 0 -23 -5 -27 -11 -3 -6
-15 -9 -25 -6 -23 6 -35 -9 -14 -17 8 -3 36 4 61 14 50 22 79 26 69 10 -4 -7
3 -8 22 -4 36 9 66 24 60 31 -3 2 -14 0 -25 -6 -12 -6 -26 -11 -32 -11 -18 0
0 20 28 32 l27 11 -40 9 c-22 5 -57 8 -77 6 -25 -2 -38 1 -38 8 0 7 -6 15 -12
17 -8 3 -6 6 5 6 9 1 17 -2 17 -6 0 -5 32 -9 72 -11 68 -3 104 -15 93 -32 -3
-5 4 -6 16 -3 41 11 3 -33 -53 -62 -75 -39 -120 -67 -115 -72 3 -2 35 12 73
31 38 20 70 36 72 36 5 0 -51 -74 -63 -82 -7 -5 -7 -8 0 -8 6 0 28 23 50 51
43 54 107 99 86 60 -6 -11 -51 -60 -101 -110 -49 -50 -86 -91 -82 -91 5 0 41
32 80 71 39 39 76 68 81 65 5 -3 8 2 7 11 -1 13 7 18 26 18 15 1 36 9 48 20
11 10 23 15 27 11 5 -4 0 -12 -10 -17 -27 -15 -20 -29 8 -16 14 7 25 18 25 25
0 6 5 12 10 12 6 0 4 -15 -5 -36 -26 -62 -16 -72 15 -14 24 45 29 51 30 30 1
-17 3 -20 8 -10 4 8 16 15 27 16 11 1 34 5 50 9 28 7 29 6 11 -7 -13 -10 -15
-17 -8 -22 7 -4 12 -2 12 4 0 7 6 10 13 7 6 -2 20 2 29 11 18 15 54 9 44 -7
-3 -5 7 -11 22 -14 32 -6 80 2 88 14 8 14 -30 11 -44 -3 -9 -9 -12 -8 -12 5 0
10 8 17 18 17 10 0 23 5 30 12 9 9 12 9 12 -1 0 -10 9 -12 30 -7 17 3 30 1 30
-4 0 -6 -3 -9 -7 -9 -21 3 -33 -2 -33 -14 0 -12 10 -11 58 1 31 8 61 19 65 26
6 8 10 8 14 -2 8 -20 84 -52 109 -46 16 4 25 0 34 -16 6 -12 9 -28 6 -35 -2
-7 2 -16 10 -19 11 -4 14 -1 10 12 -3 9 3 30 13 46 17 25 20 26 24 10 3 -12 5
-7 6 12 1 38 14 50 61 58 26 5 41 1 59 -13 23 -17 28 -18 75 -4 28 7 60 18 71
23 40 17 65 21 65 10 0 -6 5 -8 10 -5 6 4 8 10 6 14 -3 4 9 5 26 3 21 -3 29
-1 24 7 -4 6 -3 11 2 11 14 0 21 -34 16 -82 -4 -42 -4 -42 11 10 8 30 13 58 9
63 -3 5 2 9 10 9 8 0 20 -8 25 -17 6 -10 11 -12 11 -5 0 25 27 10 88 -49 77
-76 82 -67 7 12 -50 52 -73 91 -43 73 7 -4 8 -3 4 5 -4 6 -13 11 -19 10 -23
-3 -37 1 -37 11 0 5 6 8 13 6 6 -3 25 -7 40 -10 15 -4 25 -11 22 -16 -3 -5 4
-14 15 -20 22 -12 27 -1 8 18 -12 12 1 17 42 14 8 0 18 5 23 11 6 9 10 9 14 0
2 -7 9 -13 14 -13 6 0 7 5 4 10 -3 6 1 10 9 10 9 0 13 -7 11 -20 -3 -13 2 -20
12 -20 11 0 14 6 9 26 -6 22 -4 25 9 20 9 -3 23 -6 31 -6 8 0 11 -6 8 -15 -3
-8 -3 -19 0 -24 10 -15 33 -3 39 20 8 32 34 22 41 -16 4 -19 12 -37 17 -41 7
-4 9 0 5 12 -8 26 4 40 39 47 20 3 33 0 42 -11 10 -14 15 -15 32 -4 25 15 42
16 21 1 -12 -9 -11 -10 8 -6 12 3 22 1 22 -4 0 -5 9 -9 20 -9 11 0 20 5 20 10
0 6 -4 10 -9 10 -5 0 -11 6 -14 13 -3 9 5 12 29 9 19 -2 31 -8 28 -13 -3 -5
10 -9 29 -9 29 0 35 -4 39 -25 3 -14 1 -25 -3 -25 -5 0 -9 -4 -9 -10 0 -18 22
-10 27 9 3 11 12 22 22 24 14 4 14 5 -1 6 -23 1 -23 21 -1 21 10 0 27 -11 39
-26 12 -14 25 -21 28 -16 3 6 -1 12 -9 16 -24 9 -18 21 12 24 36 3 88 -39 112
-91 17 -35 19 -37 14 -12 -3 17 -12 40 -20 53 -7 12 -11 27 -8 32 3 5 -10 14
-29 21 -19 7 -33 16 -30 20 7 12 65 -8 78 -27 12 -15 13 -15 14 0 1 9 3 23 4
31 1 8 8 15 15 15 8 0 11 -4 8 -10 -3 -5 0 -10 9 -10 8 0 22 -3 31 -6 9 -4 15
-3 13 2 -3 10 5 14 25 14 9 0 9 -2 -1 -9 -8 -4 -13 -12 -12 -16 1 -4 -18 -20
-42 -36 -24 -16 -36 -29 -27 -29 9 0 22 7 29 15 7 8 18 15 25 15 6 0 20 9 30
20 10 11 27 20 37 20 15 0 18 -5 12 -22 -6 -23 -6 -23 13 -3 11 11 16 23 11
26 -5 3 9 13 32 22 41 16 46 4 6 -14 -18 -8 -17 -9 7 -4 17 3 26 2 23 -4 -11
-18 23 -20 46 -2 44 33 89 50 119 44 28 -5 35 -13 23 -26 -4 -3 -16 0 -27 8
-17 12 -23 12 -42 -1 -12 -8 -25 -11 -28 -7 -4 3 -7 3 -7 0 0 -17 41 -26 83
-18 38 7 47 5 58 -11 20 -28 28 -22 22 17 -4 24 -2 35 7 35 7 0 10 -6 7 -14
-3 -8 1 -17 9 -20 9 -3 14 1 14 13 0 23 46 26 55 4 4 -11 14 -14 35 -9 17 3
30 1 30 -4 0 -6 -7 -10 -15 -10 -8 0 -15 -4 -15 -10 0 -5 12 -10 28 -9 15 0
21 3 15 6 -9 3 -10 10 -3 24 11 19 4 24 -29 19 -8 -1 -12 4 -8 14 3 8 1 17 -6
20 -7 2 -3 5 8 5 26 1 55 -22 55 -43 0 -9 7 -16 15 -16 8 0 24 -6 35 -12 14
-9 22 -10 31 -1 8 8 18 7 40 -6 16 -9 29 -19 29 -23 0 -5 11 -8 24 -8 13 0 26
-7 30 -15 3 -8 12 -15 19 -15 8 0 26 -11 41 -23 18 -16 36 -22 52 -19 19 3 24
0 24 -17 0 -14 8 -23 24 -27 25 -6 43 -33 29 -43 -11 -8 -15 -31 -5 -31 4 0
13 9 20 20 8 13 17 18 25 13 7 -4 22 -6 35 -4 12 1 22 -3 22 -9 0 -6 -8 -9
-18 -6 -10 4 -27 -1 -38 -9 -17 -13 -17 -14 -1 -15 9 0 17 -5 17 -11 0 -7 -10
-9 -27 -5 -24 5 -22 3 10 -14 20 -11 37 -26 37 -33 0 -9 3 -8 9 1 6 10 10 9
14 -7 4 -18 11 -20 50 -16 35 3 51 0 70 -15 14 -11 30 -20 37 -20 6 0 19 -7
27 -16 13 -13 18 -13 24 -2 7 10 17 4 42 -24 18 -21 39 -38 47 -38 22 0 103
-42 122 -63 9 -10 21 -16 26 -13 5 3 24 -6 42 -19 23 -17 37 -22 44 -15 17 17
29 11 15 -7 -10 -12 -11 -17 -2 -20 7 -2 10 -10 7 -17 -3 -9 14 -22 51 -37 44
-18 52 -25 38 -30 -17 -7 -17 -8 0 -8 9 -1 17 -5 17 -10 0 -5 8 -11 18 -13 9
-3 -1 -4 -24 -4 -35 1 -40 3 -37 21 2 14 -1 12 -9 -6 l-13 -27 -35 18 c-19 9
-46 21 -60 24 l-25 7 24 -20 c13 -12 33 -21 45 -21 17 0 18 -2 6 -10 -22 -15
6 -30 42 -23 17 3 28 1 28 -5 0 -6 7 -9 15 -6 10 4 15 0 15 -11 0 -11 -5 -15
-15 -11 -8 3 -15 3 -15 0 0 -3 7 -12 15 -20 17 -18 20 -34 5 -34 -5 0 -10 4
-10 9 0 12 -32 23 -41 14 -4 -4 -1 -14 7 -21 9 -8 14 -9 14 -2 0 6 5 8 10 5 6
-4 8 -11 5 -16 -4 -5 -2 -9 4 -9 5 0 13 5 16 10 11 18 35 11 35 -11 0 -15 -4
-19 -19 -14 -11 3 -22 1 -26 -4 -3 -7 0 -8 10 -5 11 5 14 2 8 -12 -4 -12 -3
-15 6 -10 23 15 69 -4 74 -30 5 -29 -7 -31 -30 -4 -21 24 -36 25 -53 5 -10
-12 -10 -15 0 -15 7 0 10 -7 6 -16 -4 -12 -2 -15 9 -10 9 3 15 0 15 -8 0 -8 7
-16 15 -20 8 -3 15 -12 15 -20 0 -8 6 -16 13 -19 6 -2 9 -8 5 -12 -4 -4 -18 5
-32 20 l-26 28 11 -32 c6 -17 15 -31 20 -31 5 0 9 -5 9 -11 0 -6 -13 -1 -29
10 -16 12 -34 21 -40 21 -16 0 -13 -20 4 -26 8 -4 15 -10 15 -16 0 -5 7 -17
16 -25 13 -14 17 -14 25 -2 7 12 9 11 9 -2 0 -9 -7 -19 -15 -23 -22 -8 -19
-28 3 -22 15 5 18 1 17 -16 -2 -23 -7 -25 -36 -13 -10 4 -19 0 -23 -10 -8 -23
34 -74 59 -72 11 1 20 -4 20 -11 0 -8 9 -21 20 -29 l20 -16 -20 8 c-11 4 -29
10 -40 13 -11 2 -26 9 -33 15 -9 7 -11 6 -6 -8 6 -14 3 -16 -14 -11 -12 4 -23
2 -28 -5 -5 -9 -2 -10 10 -6 14 5 17 3 12 -8 -3 -9 0 -15 10 -15 11 0 14 -6
10 -17 -5 -16 -4 -16 7 -3 16 19 57 42 57 32 0 -4 -9 -14 -20 -22 -22 -16 -27
-35 -7 -27 6 2 20 -6 30 -19 21 -28 4 -33 -27 -9 -27 21 -31 19 -32 -13 -1
-15 1 -22 3 -15 2 7 11 9 19 6 10 -4 12 -9 4 -18 -8 -9 -6 -14 5 -19 8 -3 15
-12 15 -20 0 -10 -6 -13 -15 -10 -22 9 -18 -19 5 -33 10 -7 26 -10 35 -7 8 3
15 1 15 -5 0 -6 7 -8 17 -4 11 4 14 3 9 -5 -4 -7 -2 -12 3 -12 6 0 11 -7 11
-15 0 -8 -4 -15 -10 -15 -5 0 -10 5 -10 10 0 6 -4 10 -10 10 -5 0 -10 -7 -10
-15 0 -9 -6 -12 -17 -8 -17 6 -17 5 0 -14 9 -11 17 -27 17 -36 0 -8 9 -19 20
-22 11 -3 20 -11 20 -16 0 -6 -9 -7 -20 -4 -11 3 -20 4 -20 0 0 -10 33 -59 49
-72 13 -11 11 -13 -12 -13 -15 0 -27 -4 -27 -9 0 -5 8 -7 18 -4 12 3 19 -1 19
-12 0 -10 -7 -15 -20 -13 -28 4 -32 -17 -6 -28 21 -10 21 -10 -6 -42 -19 -23
-23 -32 -12 -32 9 0 17 -6 20 -12 2 -7 8 -9 13 -5 5 4 2 12 -6 17 -8 5 -11 12
-8 16 8 7 38 -20 38 -34 0 -19 -33 -22 -53 -5 -19 18 -19 17 -13 -7 3 -14 3
-20 0 -13 -3 7 -13 9 -21 6 -12 -5 -15 -2 -10 10 4 11 1 17 -8 17 -8 0 -15 -5
-15 -11 0 -6 -7 -9 -15 -5 -8 3 -15 1 -15 -4 0 -5 11 -12 25 -16 14 -3 25 -12
25 -20 0 -8 5 -14 10 -14 6 0 10 4 10 8 0 14 63 7 88 -8 12 -8 22 -18 22 -22
0 -13 -45 -9 -59 5 -10 10 -10 7 0 -15 7 -16 18 -28 25 -28 17 0 48 -46 40
-59 -3 -5 3 -7 14 -4 16 4 19 2 14 -13 -4 -11 -14 -27 -22 -36 -10 -12 -11
-18 -4 -18 7 0 12 5 12 10 0 6 5 10 10 10 19 0 10 -21 -12 -31 -20 -8 -19 -9
8 -5 29 5 30 3 26 -24 -4 -27 -6 -28 -26 -18 -28 15 -58 18 -53 4 3 -6 10 -10
16 -8 6 1 11 -6 11 -15 0 -15 2 -16 10 -3 9 13 14 7 11 -12 0 -5 6 -8 14 -8 8
0 15 -5 15 -11 0 -6 7 -9 15 -5 9 3 15 0 15 -10 0 -8 -4 -13 -9 -9 -5 3 -12
-4 -16 -15 -3 -11 -13 -20 -22 -20 -14 0 -14 -2 0 -18 10 -10 14 -22 11 -25
-8 -8 36 -46 54 -47 9 0 11 -7 7 -22 -4 -15 -3 -18 2 -11 7 10 13 10 29 -3 10
-8 15 -13 9 -11 -5 3 -23 -1 -40 -8 l-30 -13 32 -7 c22 -5 33 -15 37 -31 4
-13 13 -24 20 -24 21 0 29 -30 8 -30 -16 -1 -16 -1 0 -14 16 -12 16 -14 -3
-34 -11 -12 -24 -22 -29 -22 -6 0 0 -10 12 -22 21 -21 21 -23 5 -26 -15 -3
-16 -6 -6 -19 10 -12 10 -16 0 -23 -11 -6 -11 -9 0 -13 12 -5 12 -7 0 -15 -7
-5 -11 -14 -7 -20 9 -15 -4 -42 -22 -42 -12 0 -12 -4 4 -22 17 -19 17 -21 2
-15 -10 4 -18 2 -18 -3 0 -5 10 -12 21 -15 20 -7 19 -8 -12 -23 -26 -13 -29
-18 -16 -20 11 -2 16 -9 13 -18 -3 -8 1 -14 9 -14 18 0 31 20 18 29 -5 3 -1
14 9 23 10 10 20 13 23 8 4 -6 1 -10 -4 -10 -6 0 -11 -7 -11 -15 0 -9 6 -12
15 -9 8 4 15 1 15 -5 0 -6 -9 -11 -21 -11 -12 0 -23 -8 -26 -19 -4 -16 -8 -18
-23 -9 -14 9 -22 9 -34 -1 -8 -7 -20 -10 -25 -6 -7 3 -8 0 -5 -9 7 -19 31 -21
37 -3 2 6 7 9 11 5 10 -8 -16 -48 -31 -48 -6 0 -14 6 -16 13 -3 7 -6 5 -6 -5
-1 -13 7 -18 24 -18 14 0 25 -4 25 -9 0 -6 -17 -8 -39 -5 -28 3 -42 0 -52 -12
-12 -15 -11 -16 11 -10 18 5 21 5 10 -3 -18 -12 -7 -26 12 -15 22 14 50 15 64
3 17 -14 18 -33 2 -22 -7 4 -34 8 -60 8 -37 0 -44 -3 -35 -13 8 -10 7 -16 -4
-23 -8 -5 -17 -9 -21 -9 -5 0 -8 -12 -8 -26 0 -14 -4 -22 -10 -19 -6 3 -7 -1
-4 -9 3 -9 10 -16 15 -16 5 0 9 -10 8 -22 0 -18 -2 -20 -7 -6 -6 14 -9 15 -26
2 -18 -13 -18 -15 -3 -32 9 -10 17 -24 17 -30 0 -7 5 -12 10 -12 6 0 10 -7 10
-16 0 -15 -2 -15 -26 1 -14 9 -29 13 -32 9 -4 -4 -1 -9 6 -11 21 -8 13 -22
-12 -19 -33 3 -78 47 -65 63 8 8 5 10 -10 6 -12 -3 -21 -1 -21 6 0 6 7 11 16
11 8 0 12 5 9 10 -4 7 2 9 18 5 30 -8 42 7 27 35 -6 11 -7 20 -3 19 22 -4 32
3 27 16 -4 10 -13 13 -26 9 -15 -4 -19 -2 -16 11 2 12 14 19 35 21 27 3 33 0
33 -16 0 -11 4 -20 10 -20 5 0 8 10 7 22 -4 26 -76 56 -88 37 -4 -7 -13 -8
-25 -1 -11 5 -25 7 -33 4 -9 -3 -11 0 -6 8 6 9 26 11 74 7 53 -5 61 -4 41 5
-14 6 -42 10 -62 9 -33 -2 -38 1 -38 21 0 19 -2 20 -10 8 -5 -8 -10 -12 -11
-7 -1 4 -3 12 -4 17 -1 6 -3 13 -4 17 0 4 -7 -2 -15 -13 -10 -13 -11 -23 -4
-31 6 -8 5 -19 -2 -34 -11 -19 -10 -21 4 -16 11 4 15 3 11 -4 -4 -5 -1 -16 5
-24 21 -26 -8 -18 -38 10 -16 15 -28 21 -31 14 -2 -7 4 -16 13 -21 15 -9 23
-38 9 -38 -3 0 -16 8 -27 17 -15 12 -13 9 4 -10 19 -22 21 -30 11 -36 -9 -6
-3 -14 23 -30 45 -28 46 -41 4 -32 -24 5 -32 12 -30 24 2 14 -2 16 -21 12 -14
-4 -28 -2 -32 5 -4 6 -19 16 -33 21 -19 7 -23 12 -13 18 16 10 -29 20 -115 25
-41 3 -77 13 -115 32 -30 15 -60 29 -67 30 -7 1 -34 15 -60 30 -151 90 -347
164 -470 178 -27 3 -31 2 -21 -10 6 -8 24 -14 40 -14 28 0 52 -19 27 -21 -43
-4 -134 34 -123 51 4 6 -6 10 -22 10 l-28 0 35 -22 c28 -17 31 -23 17 -26 -10
-2 -37 3 -60 11 -29 10 -50 11 -67 5 -14 -5 -26 -5 -27 -1 -2 5 -20 7 -40 5
l-36 -5 44 -14 c54 -18 70 -32 35 -30 -14 1 -26 6 -26 11 0 5 -3 6 -7 3 -3 -4
-11 -3 -17 2 -6 5 -50 14 -99 20 -48 7 -95 14 -105 17 -9 3 -5 -3 11 -12 34
-23 35 -37 1 -24 -14 6 -29 8 -34 5 -5 -3 -29 0 -55 7 -37 10 -48 10 -54 0 -4
-7 -22 -14 -41 -17 -18 -2 -38 -9 -43 -14 -6 -6 -38 -11 -71 -11 -43 0 -57 -3
-46 -10 16 -11 3 -12 -97 -13 -43 0 -51 -3 -42 -14 9 -10 3 -13 -32 -15 -24 0
-51 -1 -59 -2 -8 -1 -16 -9 -18 -19 -2 -9 -8 -14 -14 -11 -6 4 -17 0 -23 -10
-7 -9 -28 -17 -49 -18 -23 -1 -36 -6 -36 -15 0 -8 -12 -13 -35 -13 -24 0 -35
-5 -35 -15 0 -8 -4 -15 -10 -15 -5 0 -10 8 -10 18 0 14 -2 14 -9 3 -8 -12 -12
-12 -24 -2 -13 10 -15 9 -10 -7 5 -22 -29 -36 -46 -19 -6 6 -12 9 -14 6 -2 -2
-18 -23 -35 -45 -18 -23 -32 -45 -32 -49 0 -4 -8 -14 -17 -22 -16 -13 -14 -14
17 -9 25 4 31 3 20 -4 -8 -5 -30 -10 -47 -10 -18 0 -33 -5 -33 -10 0 -6 3 -9
8 -9 26 4 34 -1 22 -16 -11 -13 -14 -13 -26 2 -28 37 -15 62 69 139 9 8 17 21
17 27 -1 7 -18 -7 -39 -30 -21 -24 -45 -43 -54 -43 -17 0 -27 -21 -27 -55 0
-13 -4 -27 -10 -30 -15 -9 -12 -25 5 -25 8 0 15 -6 15 -13 0 -7 -9 -13 -19
-13 -11 0 -17 4 -15 8 11 17 -7 7 -29 -18 l-24 -26 -16 23 c-21 29 -31 20 -17
-16 9 -23 7 -30 -7 -40 -15 -11 -19 -11 -25 3 -6 16 -7 15 -7 0 -1 -10 -7 -18
-13 -19 -7 -1 -22 -2 -32 -3 -27 -2 -30 -18 -6 -44 24 -25 24 -28 6 -35 -11
-4 -13 -1 -9 10 5 13 1 15 -20 11 -18 -4 -28 0 -31 11 -2 9 -4 3 -3 -14 1 -18
7 -29 15 -27 7 1 12 -8 12 -21 0 -16 -6 -23 -20 -23 -11 0 -20 6 -20 14 0 7
-5 10 -10 7 -15 -9 -12 -45 4 -51 8 -3 17 -12 20 -20 3 -9 1 -12 -4 -9 -6 3
-10 0 -10 -8 0 -22 12 -28 28 -14 13 9 14 9 8 0 -11 -19 4 -39 15 -22 6 9 6 0
3 -21 -8 -40 -15 -51 -21 -32 -3 6 -9 12 -14 12 -4 0 -6 -7 -3 -15 4 -8 17
-15 30 -15 13 0 24 -4 24 -10 0 -5 -4 -10 -10 -10 -5 0 -10 -4 -10 -10 0 -5 7
-10 15 -10 14 0 20 -12 16 -33 -1 -5 3 -6 9 -2 6 4 8 16 4 27 -4 14 -2 18 5
14 6 -4 11 -18 11 -32 0 -14 4 -23 9 -20 5 3 11 -1 15 -9 3 -8 1 -15 -4 -15
-6 0 -10 -4 -10 -10 0 -5 9 -10 20 -10 14 0 18 -5 13 -16 -3 -9 0 -20 7 -24 9
-6 13 -28 12 -66 -1 -35 3 -61 10 -65 9 -6 8 -12 -2 -23 -7 -9 -10 -19 -6 -23
3 -3 6 -1 6 5 0 7 5 12 10 12 6 0 10 -8 10 -18 0 -10 5 -23 11 -29 8 -8 5 -13
-11 -18 -13 -4 -18 -10 -13 -14 6 -3 21 -28 34 -56 12 -27 25 -53 27 -57 2 -5
-3 -8 -12 -8 -9 0 -16 -7 -16 -16 0 -9 6 -14 13 -11 10 4 12 -11 11 -65 -2
-52 1 -71 12 -75 19 -7 18 -23 -2 -23 -11 0 -8 -7 10 -24 31 -28 32 -33 9 -39
-13 -3 -11 -5 6 -6 20 -1 21 -3 11 -16 -10 -13 -10 -19 3 -33 8 -9 18 -30 22
-47 12 -54 14 -58 28 -47 6 5 26 13 44 16 25 6 32 4 36 -11 4 -17 5 -17 6 0 1
14 7 16 27 11 19 -5 25 -4 20 5 -4 6 -13 11 -21 11 -8 0 -17 5 -21 12 -5 8 -2
9 9 5 13 -5 17 0 17 20 0 33 9 25 12 -10 1 -15 8 -27 15 -27 7 0 13 -6 13 -12
0 -9 3 -9 9 1 5 8 16 11 25 8 9 -4 16 -2 16 3 0 6 9 5 20 -2 11 -7 20 -20 20
-30 0 -23 20 -34 31 -17 6 10 9 11 9 1 0 -6 4 -11 8 -10 6 3 95 -37 112 -50 2
-2 -2 -8 -10 -13 -13 -9 -13 -10 0 -6 10 2 15 16 15 38 0 19 4 37 9 41 14 10
36 -2 37 -21 0 -11 2 -12 6 -3 8 19 -28 56 -39 40 -5 -9 -8 -7 -8 6 0 18 -1
18 -19 2 -17 -15 -19 -15 -32 1 -12 15 -12 16 3 10 10 -3 22 1 30 10 11 14 11
16 -4 10 -24 -9 -45 28 -27 49 8 10 8 14 0 14 -6 0 -11 9 -11 21 0 29 17 14
25 -23 6 -27 44 -72 53 -64 6 7 -11 35 -18 31 -4 -3 -8 11 -8 31 0 31 1 33 13
17 13 -17 14 -17 20 0 4 9 12 17 17 17 7 0 6 -5 -1 -14 -7 -9 -8 -21 -2 -37 8
-21 10 -22 16 -7 4 9 4 21 1 26 -9 15 19 33 38 26 12 -5 19 0 23 15 3 11 9 21
14 21 11 0 12 -27 1 -32 -4 -1 0 -19 10 -38 l18 -35 -1 35 c-2 62 1 80 12 80
6 0 9 -10 6 -22 -3 -13 -1 -32 3 -43 7 -18 9 -16 15 12 10 43 42 51 50 12 4
-16 11 -32 17 -35 6 -4 8 1 3 15 -8 27 4 48 17 30 7 -10 8 -8 5 9 -5 19 -3 21
9 11 9 -7 12 -20 7 -37 -5 -21 -3 -24 11 -19 10 4 22 7 27 7 5 0 9 5 9 11 0 5
-4 8 -9 4 -12 -7 -24 12 -16 24 3 5 17 -2 31 -16 21 -21 32 -24 60 -20 19 3
34 2 34 -4 0 -5 12 -9 27 -9 28 0 26 10 -3 14 -10 2 -20 8 -22 15 -3 9 6 12
31 10 20 -2 39 0 43 4 11 10 54 9 54 -2 0 -6 8 -10 18 -10 9 0 33 -4 52 -8 21
-6 45 -5 62 1 18 7 38 6 61 -1 20 -6 39 -7 44 -3 4 4 60 13 123 20 63 6 119
15 124 18 10 6 35 9 131 16 33 3 80 12 105 21 l45 15 -50 -4 c-27 -2 -42 -2
-32 1 9 2 14 9 11 15 -5 7 0 9 14 6 13 -4 40 3 65 15 36 18 39 22 20 25 -13 2
-23 8 -23 13 0 6 9 8 20 4 13 -4 23 0 31 13 10 17 17 18 51 9 41 -10 62 -3 38
14 -11 7 -5 8 20 3 19 -3 32 -3 28 1 -14 15 30 36 58 29 19 -5 25 -4 20 5 -4
6 -2 11 3 11 6 0 11 -5 11 -11 0 -7 10 -9 26 -5 21 6 25 4 21 -7 -5 -12 2 -14
36 -9 23 3 43 9 45 13 2 5 15 6 28 3 18 -5 31 1 54 26 16 17 34 29 40 25 5 -3
10 -1 10 4 0 6 7 11 15 11 8 0 15 5 15 11 0 6 7 18 16 26 13 14 17 14 24 2 14
-22 23 -3 10 23 -10 21 -10 21 3 6 19 -24 30 -23 22 2 -4 11 -3 20 2 19 17 -3
73 14 73 23 0 5 4 6 10 3 5 -3 21 2 35 11 28 18 35 8 8 -12 -17 -12 -17 -13
-1 -10 10 1 21 5 24 9 12 12 24 8 24 -7 0 -11 17 -15 65 -18 69 -3 76 3 55 43
-9 15 -7 19 6 19 12 0 15 6 10 26 -4 16 -3 23 3 19 6 -3 13 -21 17 -40 3 -20
11 -32 16 -29 6 4 8 1 6 -7 -3 -8 -12 -13 -22 -11 -9 2 -16 -2 -16 -7 0 -18
23 -60 30 -56 4 3 13 -2 20 -10 9 -11 17 -12 30 -5 10 6 26 7 36 3 14 -5 16
-2 10 20 -4 16 -2 27 4 27 5 0 10 -12 10 -26 0 -21 4 -24 20 -19 13 4 20 2 20
-6 0 -7 -3 -9 -6 -6 -4 3 -16 0 -28 -8 -27 -20 -50 -19 -42 0 5 13 2 14 -17 3
-19 -10 -20 -13 -4 -16 9 -2 17 -8 17 -13 0 -14 30 -11 31 4 1 6 5 1 9 -13 l8
-25 7 22 c10 30 28 18 21 -13 -4 -16 -2 -24 6 -24 9 0 12 14 11 42 -2 60 1 63
57 60 52 -4 56 -7 40 -32 -5 -9 -5 -19 2 -27 8 -10 5 -13 -11 -13 -24 0 -28
-15 -5 -24 10 -4 13 -2 8 6 -5 7 -3 8 5 3 8 -4 10 -17 6 -32 -5 -22 -3 -24 16
-18 18 6 21 4 16 -10 -4 -9 -7 -19 -7 -21 0 -3 -4 -2 -10 1 -5 3 -10 1 -10 -4
0 -6 7 -11 16 -11 14 0 14 -3 4 -15 -10 -12 -10 -19 -2 -27 9 -9 12 -8 12 5 0
9 5 17 11 17 6 0 9 -9 6 -20 -3 -10 0 -21 7 -24 6 -2 3 -5 -7 -5 -16 -1 -16
-3 -2 -25 15 -22 15 -25 -1 -34 -11 -6 -13 -11 -5 -16 6 -4 11 -2 11 4 0 26
16 -1 18 -30 1 -18 7 -40 12 -49 11 -21 2 -37 -25 -44 -17 -4 -17 -5 4 -6 20
-1 21 -3 11 -16 -10 -12 -10 -15 3 -15 11 0 14 -5 10 -16 -5 -13 -7 -13 -14
-2 -7 10 -9 9 -9 -4 0 -10 5 -18 10 -18 6 0 15 -11 20 -25 6 -15 17 -25 30
-25 11 0 25 -9 32 -20 7 -11 18 -20 24 -20 25 0 84 -84 84 -119 0 -12 5 -21
11 -21 7 0 10 -15 7 -40 -2 -22 1 -40 5 -40 5 0 4 -7 -3 -15 -10 -12 -10 -15
1 -15 9 0 10 -3 3 -8 -17 -11 -23 -39 -12 -50 7 -7 3 -14 -11 -22 -12 -6 -18
-16 -15 -22 4 -7 3 -8 -5 -4 -6 4 -14 1 -17 -7 -3 -9 -13 -13 -26 -9 -16 4
-20 1 -16 -10 8 -19 -11 -49 -19 -30 -2 6 -9 9 -14 6 -6 -4 -6 -11 1 -19 7 -9
6 -16 -5 -25 -11 -9 -15 -9 -15 -1 0 8 -7 5 -17 -5 -10 -10 -18 -21 -18 -25 0
-4 -3 -11 -7 -15 -4 -4 -3 -13 2 -19 18 -21 -29 -110 -47 -91 -4 3 2 15 12 26
14 16 15 20 4 20 -8 0 -20 -5 -27 -12 -9 -9 -15 -9 -24 0 -9 9 -8 12 5 12 9 0
17 4 17 10 0 14 -60 5 -70 -11 -5 -8 -4 -19 2 -26 8 -10 6 -13 -6 -13 -9 0
-16 -5 -16 -11 0 -5 -5 -7 -10 -4 -14 9 -24 -21 -15 -42 5 -10 7 -25 6 -33 -1
-9 12 -26 28 -38 l30 -22 -3 25 c-2 14 -6 28 -9 32 -15 14 -6 23 14 13 11 -7
18 -17 16 -24 -4 -9 4 -11 25 -8 21 3 29 1 24 -7 -4 -6 -14 -11 -22 -11 -8 0
-23 -9 -34 -20 -21 -21 -46 -28 -35 -10 3 5 -1 10 -10 10 -11 0 -15 -5 -11
-15 3 -10 -3 -17 -20 -21 -18 -5 -22 -10 -15 -17 7 -7 15 -6 25 2 15 13 36 7
36 -10 0 -5 -6 -9 -14 -9 -8 0 -27 -5 -41 -10 -26 -10 -27 -11 -11 -35 20 -31
21 -57 1 -31 -17 22 -29 17 -19 -8 10 -26 50 -17 47 12 -4 31 13 27 25 -6 7
-21 6 -37 -4 -61 -19 -45 -17 -51 6 -22 11 13 20 32 20 42 0 10 7 19 15 19 8
0 15 -4 15 -10 0 -5 -4 -10 -10 -10 -14 0 -12 -38 3 -43 17 -6 1 -20 -25 -22
-15 -1 -23 -8 -23 -21 0 -10 -6 -18 -12 -16 -7 1 -13 -2 -13 -8 0 -5 5 -10 11
-10 6 0 8 -7 5 -16 -6 -15 42 -70 52 -60 2 3 -8 16 -23 30 -20 19 -23 26 -12
26 8 0 23 -7 32 -16 9 -9 19 -13 23 -9 4 4 1 10 -5 12 -7 3 -13 11 -13 19 0 8
-6 11 -16 7 -12 -4 -15 -2 -12 8 5 16 30 19 41 4 4 -5 7 23 6 63 -1 40 1 75 5
79 3 3 1 12 -5 20 -11 13 -1 18 24 14 5 -1 5 4 2 10 -4 6 -20 9 -36 5 -16 -3
-29 -1 -29 4 0 6 7 10 16 10 9 0 12 5 8 13 -6 9 -4 9 8 -1 19 -15 30 -3 34 35
2 17 -2 23 -17 23 -21 0 -26 25 -6 33 6 2 26 4 42 3 21 -1 29 -5 27 -16 -2 -8
0 -12 4 -7 4 4 8 18 9 32 0 21 -3 24 -19 19 -18 -6 -18 -5 -6 8 8 8 23 17 33
21 9 3 17 12 17 19 0 7 9 19 20 26 11 7 20 19 20 27 0 8 4 15 8 15 5 0 15 11
22 25 7 14 21 25 29 25 19 0 81 54 81 70 0 6 4 9 9 6 12 -8 34 20 27 33 -4 5
-2 13 4 16 6 4 8 15 5 25 -4 12 1 22 12 29 10 6 12 11 6 11 -8 0 -5 10 9 25
11 13 25 22 30 19 4 -3 8 2 8 10 0 9 5 16 10 16 6 0 10 8 10 18 0 14 -2 15
-10 2 -5 -8 -10 -10 -10 -5 0 19 15 32 33 29 9 -1 17 3 17 8 0 6 7 16 15 22 8
6 16 20 18 31 2 11 10 34 17 50 21 51 29 95 16 95 -7 0 -7 3 -1 8 14 10 15 71
1 68 -6 -1 -1 2 11 8 19 8 37 39 34 59 -1 4 3 7 7 7 12 0 9 -70 -3 -70 -5 0
-4 -4 4 -9 13 -8 13 -12 0 -27 -16 -20 -21 -144 -5 -141 17 3 18 -30 2 -46
-12 -11 -13 -16 -3 -20 8 -2 13 -35 14 -108 2 -107 -10 -174 -29 -163 -7 5 -9
-4 -6 -24 2 -17 1 -29 -4 -26 -4 3 -8 -4 -8 -15 0 -12 -4 -21 -9 -21 -5 0 -13
-10 -17 -22 -10 -34 -44 -79 -55 -73 -5 4 -9 -1 -9 -9 0 -8 -9 -18 -21 -21
-20 -7 -20 -8 -3 -26 16 -18 16 -19 1 -13 -10 3 -17 1 -17 -5 0 -6 4 -11 10
-11 5 0 6 -7 3 -17 -5 -12 -3 -14 7 -8 10 6 12 4 8 -7 -4 -8 -2 -21 2 -29 5
-8 5 -16 -1 -20 -6 -3 -4 -17 5 -34 9 -16 12 -32 8 -35 -4 -3 -8 -96 -9 -208
-1 -142 -5 -207 -13 -217 -8 -10 -9 -15 -2 -15 6 0 0 -12 -14 -27 -13 -14 -23
-31 -21 -37 5 -14 -12 -30 -56 -54 -27 -14 -33 -22 -25 -30 9 -9 7 -12 -9 -12
-12 0 -24 -4 -28 -9 -3 -5 -23 -8 -45 -6 -22 2 -40 -1 -40 -6 0 -6 -5 -7 -11
-4 -17 11 -59 13 -95 5 -22 -5 -32 -4 -28 2 4 6 -2 7 -16 3 -19 -6 -22 -4 -16
10 4 13 2 16 -9 12 -8 -4 -17 -2 -20 3 -4 6 1 10 10 10 9 0 13 5 10 10 -4 6
-11 7 -17 4 -7 -5 -9 2 -4 21 5 19 3 31 -6 37 -10 8 -10 11 -1 15 10 3 10 10
1 26 -8 16 -8 22 1 25 21 7 11 20 -11 15 -22 -4 -21 -3 5 21 32 30 33 32 8 46
-13 6 -28 7 -45 1 -16 -7 -26 -6 -30 0 -2 5 -3 4 -2 -3 2 -7 15 -13 29 -13 29
1 36 -19 13 -32 -13 -7 -13 -13 1 -41 14 -29 14 -35 2 -44 -11 -7 -11 -11 -1
-15 18 -7 15 -36 -3 -29 -8 3 -15 2 -15 -3 0 -5 10 -11 22 -14 18 -5 19 -8 8
-22 -10 -12 -10 -19 -2 -27 17 -17 15 -28 -4 -28 -11 0 -14 -5 -10 -16 4 -9 1
-23 -5 -30 -9 -11 -7 -19 12 -35 23 -20 23 -21 6 -34 -12 -8 -14 -14 -6 -17 9
-3 9 -9 -1 -27 -9 -18 -9 -25 0 -31 9 -6 9 -9 0 -15 -6 -4 -17 -2 -23 4 -6 6
-16 11 -21 11 -6 0 -5 -4 3 -9 11 -7 12 -13 4 -23 -8 -11 -10 -57 -4 -117 0
-7 7 -11 16 -7 8 3 15 1 15 -4 0 -6 -7 -10 -16 -10 -13 0 -15 -6 -10 -27 4
-16 3 -23 -1 -16 -6 8 -14 2 -25 -18 -14 -24 -15 -29 -3 -29 11 0 10 -8 -6
-35 -12 -19 -25 -35 -30 -35 -10 0 1 -33 15 -42 6 -4 3 -15 -9 -28 -14 -15
-15 -21 -5 -18 11 2 14 -5 11 -30 -2 -25 1 -32 14 -32 14 0 15 -3 5 -15 -10
-13 -9 -15 11 -16 23 -1 23 -1 -3 -11 -29 -10 -37 -33 -15 -41 7 -3 5 -6 -5
-6 -13 -1 -18 7 -18 24 0 19 -5 25 -22 24 -13 0 -18 -3 -11 -6 8 -3 9 -10 4
-21 -5 -9 -13 -27 -17 -39 -8 -20 -11 -20 -28 -8 -11 8 -16 18 -12 22 4 4 11
1 16 -7 5 -8 12 -11 16 -7 4 3 1 13 -5 21 -7 8 -10 20 -6 26 4 6 -4 10 -19 10
-14 0 -26 -4 -26 -10 0 -5 7 -10 16 -10 12 0 9 -6 -10 -21 -22 -17 -26 -27
-21 -50 4 -19 3 -29 -5 -29 -7 0 -10 7 -7 15 4 8 2 17 -4 21 -5 3 -7 14 -4 25
5 15 3 18 -12 13 -14 -5 -15 -4 -4 4 8 6 20 8 28 5 9 -4 13 4 13 26 0 25 4 31
23 32 16 1 17 3 5 6 -10 2 -15 10 -11 19 3 8 0 14 -5 14 -6 0 -14 -9 -17 -20
-7 -21 -25 -28 -25 -9 0 6 -7 9 -14 6 -10 -4 -13 -1 -9 9 4 10 -2 14 -20 14
-14 0 -28 -6 -30 -12 -4 -8 -6 -7 -6 3 -1 21 -38 32 -45 13 -3 -8 -6 -16 -6
-19 0 -3 -9 -14 -20 -25 -19 -19 -19 -21 -2 -38 16 -17 17 -16 23 11 9 39 14
41 43 22 14 -9 30 -14 37 -10 11 8 29 -11 29 -30 0 -5 -4 -4 -9 3 -6 11 -9 9
-14 -7 -3 -12 1 -22 9 -25 8 -3 14 -11 14 -17 0 -8 -4 -8 -12 -2 -7 6 -26 13
-42 17 -23 6 -27 4 -23 -8 4 -9 2 -16 -3 -16 -6 0 -10 6 -10 13 0 9 -2 9 -9
-1 -4 -8 -27 -16 -50 -19 -50 -7 -45 -18 7 -15 20 1 53 -2 72 -7 l35 -9 -32
-1 c-18 -1 -33 -6 -33 -12 0 -5 -5 -7 -10 -4 -6 4 -8 11 -4 16 4 7 -20 8 -66
5 -61 -4 -71 -2 -66 10 3 8 2 13 -2 11 -12 -7 -54 12 -48 22 3 5 -3 7 -14 4
-20 -5 -26 -18 -12 -27 4 -2 7 -17 6 -33 -1 -15 -3 -34 -3 -41 -1 -7 -7 -12
-15 -10 -8 2 -15 -1 -16 -7 -1 -5 7 -12 16 -14 24 -4 45 27 39 58 -5 26 -5 26
5 2 6 -14 16 -21 25 -17 10 4 15 -1 15 -14 0 -12 7 -20 17 -20 13 0 14 -3 5
-12 -9 -9 -15 -8 -26 8 -12 16 -15 16 -20 4 -3 -8 -4 -24 -3 -35 2 -16 -3 -19
-25 -17 -20 2 -28 -2 -28 -13 0 -8 -5 -15 -11 -15 -6 0 -3 -7 5 -16 18 -17 22
-39 6 -29 -5 3 -10 1 -10 -6 0 -9 -3 -10 -11 -2 -9 9 -15 73 -8 98 1 6 -2 19
-6 29 -6 13 -3 23 9 31 15 12 15 13 -4 18 -18 5 -20 0 -20 -36 0 -32 -3 -38
-12 -29 -34 34 -45 -22 -14 -70 11 -17 15 -35 10 -52 -4 -17 -2 -26 6 -26 9 0
9 -4 -1 -16 -12 -14 -14 -13 -21 12 -4 15 -5 38 -2 51 8 29 -14 31 -46 3 -28
-25 -29 -25 -23 0 3 12 0 20 -7 20 -8 0 -10 -10 -6 -33 13 -67 16 -128 5 -122
-5 4 -8 14 -7 23 2 9 -5 18 -14 20 -12 2 -15 -2 -11 -17 3 -12 1 -21 -6 -21
-5 0 -8 7 -5 15 4 8 1 15 -6 15 -6 0 -19 7 -28 16 -15 15 -18 14 -39 -10 -16
-19 -21 -34 -17 -52 4 -13 2 -24 -4 -24 -6 0 -8 -9 -5 -20 3 -11 10 -20 15
-20 5 0 6 5 3 11 -4 6 3 20 14 31 18 16 25 17 37 7 9 -8 11 -16 5 -22 -5 -5
-7 -17 -4 -26 4 -12 3 -13 -5 -3 -7 11 -12 10 -26 -3 -9 -9 -16 -22 -16 -30 0
-7 -13 -16 -30 -20 -16 -4 -30 -11 -30 -17 0 -6 12 -8 27 -4 16 3 22 3 16 0
-7 -3 -13 -14 -13 -24 0 -10 -4 -22 -10 -25 -5 -3 -10 2 -10 12 -1 17 -1 17
-11 0 -8 -13 -7 -22 1 -32 14 -16 -8 -58 -27 -51 -15 6 -37 -20 -28 -34 3 -5
1 -10 -4 -10 -6 0 -11 -16 -11 -36 0 -31 3 -36 20 -31 11 3 20 1 20 -4 0 -5
-9 -9 -20 -9 -17 0 -19 -4 -11 -17 7 -14 3 -22 -15 -36 -22 -16 -23 -16 -34 0
-8 15 -9 13 -4 -9 7 -31 -16 -48 -39 -29 -11 8 -14 4 -14 -21 0 -18 -5 -34
-12 -36 -9 -3 -9 -8 1 -20 11 -13 10 -14 -15 -8 -22 5 -28 4 -24 -6 2 -7 -3
-25 -11 -40 -12 -20 -22 -27 -37 -23 -17 4 -17 3 2 -6 24 -13 31 -29 12 -29
-8 0 -7 -6 2 -16 12 -15 11 -16 -11 -11 -14 4 -19 4 -12 1 17 -8 15 -24 -4
-24 -13 0 -14 -3 -5 -13 6 -8 8 -16 5 -20 -9 -9 -35 4 -28 14 3 5 -2 6 -10 3
-25 -10 -20 -44 7 -45 l22 0 -22 -11 c-31 -15 -29 -30 2 -22 31 8 33 -8 3 -21
-24 -11 -28 -27 -7 -34 6 -2 9 1 5 7 -3 6 -1 14 5 17 7 5 10 1 7 -11 -2 -12
-18 -22 -42 -29 -45 -13 -33 -31 12 -21 l27 7 -30 -21 c-25 -18 -26 -20 -7
-15 13 4 29 1 37 -5 16 -13 20 -31 8 -29 -19 3 -33 -2 -33 -11 0 -5 10 -10 23
-11 22 -1 22 -1 -3 -12 -32 -15 -40 -41 -9 -32 18 6 19 4 10 -13 -6 -11 -8
-22 -5 -25 10 -9 -20 -67 -34 -67 -7 0 -18 -11 -24 -25 -14 -31 -44 -33 -52
-3 -5 21 -7 22 -22 6 -25 -25 -12 -46 25 -40 30 4 43 -10 21 -23 -6 -4 -8 -10
-5 -15 10 -16 -16 -22 -33 -7 -9 8 -24 14 -34 14 -13 0 -14 -5 -8 -22 6 -16 4
-27 -8 -39 -14 -14 -15 -18 -3 -25 8 -5 20 -7 28 -4 17 7 17 -5 -2 -23 -13
-14 -15 -14 -15 0 0 18 -15 21 -25 6 -3 -6 -13 -10 -21 -10 -8 0 -12 5 -8 11
4 7 -2 9 -17 7 -13 -1 -24 -10 -25 -18 -2 -38 -5 -41 -23 -35 -12 3 -21 0 -25
-10 -3 -8 -12 -15 -20 -15 -13 0 -26 -28 -26 -57 0 -25 16 -13 30 21 16 41 46
54 56 24 4 -13 -1 -27 -15 -42 -12 -12 -21 -31 -21 -42 0 -16 -2 -17 -10 -4
-9 14 -14 7 -11 -14 2 -10 -46 -56 -60 -56 -5 0 -9 -7 -9 -15 0 -8 5 -15 10
-15 7 0 7 -7 0 -21 -9 -16 -17 -19 -41 -14 -33 7 -36 3 -13 -20 9 -9 13 -19 9
-23 -4 -4 -17 5 -30 21 -27 31 -35 34 -35 12 0 -8 4 -15 9 -15 16 0 0 -40 -20
-51 -15 -7 -19 -6 -19 5 0 25 -23 23 -48 -3 -16 -18 -25 -22 -29 -13 -8 20
-36 15 -28 -5 5 -15 4 -16 -6 -5 -18 17 -42 15 -35 -3 3 -9 0 -15 -8 -15 -8 0
-17 6 -19 13 -3 6 -6 2 -6 -10 -1 -13 3 -23 8 -23 5 0 7 -9 4 -20 -3 -11 -14
-20 -24 -20 -11 0 -19 -6 -19 -12 0 -7 -9 1 -19 18 -13 22 -30 33 -53 38 -22
4 -39 16 -50 34 -9 15 -28 38 -43 52 l-28 25 19 -35 c10 -19 17 -39 16 -43 -1
-5 2 -6 7 -3 5 4 15 -9 22 -28 11 -31 28 -40 45 -23 12 12 24 8 24 -8 0 -8 5
-15 10 -15 6 0 10 -6 10 -13 0 -7 -9 -13 -20 -13 -11 0 -20 4 -20 9 0 5 -6 7
-14 4 -8 -3 -20 1 -27 9 -6 8 -14 12 -17 9 -8 -7 -31 28 -32 47 0 9 -5 20 -11
23 -7 5 -8 -5 -3 -32 4 -21 13 -41 20 -46 7 -4 10 -15 7 -24 -4 -10 -2 -14 4
-10 7 4 10 -2 9 -17 -1 -19 -4 -22 -15 -13 -7 6 -18 23 -23 37 l-11 25 -7 -25
-6 -25 -7 26 c-4 16 -16 29 -29 32 -31 8 -33 2 -9 -22 21 -21 28 -51 12 -51
-5 0 -19 9 -32 21 -18 15 -19 19 -6 15 15 -5 16 -2 7 14 -14 25 -36 39 -27 17
6 -16 5 -16 -19 -1 -33 22 -46 8 -14 -16 14 -10 25 -27 25 -37 0 -10 6 -18 13
-18 12 0 18 -13 9 -21 -3 -3 -14 7 -26 22 -12 15 -32 33 -46 40 -26 13 -33 6
-14 -13 7 -7 7 -13 1 -17 -6 -3 -13 -2 -17 4 -3 5 -14 10 -23 10 -14 -1 -13
-4 5 -19 12 -10 19 -21 16 -25 -3 -3 2 -15 11 -25 20 -23 13 -43 -11 -34 -12
5 -15 2 -10 -10 4 -11 2 -14 -9 -10 -10 4 -14 14 -11 30 3 15 0 22 -7 20 -6
-2 -10 -18 -10 -36 2 -37 -2 -38 -32 -10 -25 24 -53 17 -33 -7 9 -11 9 -18 1
-26 -17 -17 -15 -31 4 -24 8 3 12 2 9 -4 -10 -17 -35 -11 -35 8 0 9 -4 24 -10
32 -7 11 -11 9 -19 -12 -13 -34 -49 -34 -62 -1 -11 30 -17 29 -11 -2 3 -19 0
-25 -12 -25 -9 0 -27 -11 -40 -25 -22 -24 -23 -24 -39 -4 -9 10 -17 25 -17 31
0 9 -3 9 -12 -1 -11 -10 -9 -15 6 -27 19 -14 19 -15 -6 -18 -7 0 -15 -14 -18
-31 -3 -16 -9 -29 -13 -27 -16 5 -19 1 -7 -13 18 -22 3 -18 -20 5 -31 31 -42
14 -18 -28 l20 -37 -21 25 c-11 14 -23 33 -27 43 -11 33 -20 17 -18 -33 l3
-49 -26 27 c-13 15 -22 21 -18 15 4 -9 -2 -12 -19 -11 -30 3 -32 10 -10 32 14
15 14 16 -5 16 -12 0 -21 -6 -21 -14 0 -7 -6 -18 -13 -25 -16 -13 -37 4 -37
31 0 10 -4 18 -10 18 -12 0 -13 -6 -1 -28 5 -9 5 -26 0 -37 -6 -17 -8 -17 -8
-2 -1 26 -31 21 -31 -5 -1 -22 -2 -21 -16 5 -8 15 -19 27 -24 27 -5 0 -8 12
-7 28 1 17 -3 26 -10 25 -7 -2 -13 4 -13 12 0 8 -4 15 -10 15 -13 0 -13 -16 1
-41 12 -23 2 -70 -11 -48 -7 10 -11 10 -24 0 -9 -7 -23 -11 -31 -7 -23 9 -45
-4 -45 -26 0 -17 -2 -18 -15 -8 -9 7 -19 10 -22 6 -4 -4 -1 -11 6 -15 8 -5 9
-11 4 -14 -6 -4 -15 4 -22 16 -14 26 -51 53 -51 37 0 -5 -9 -10 -20 -10 -11 0
-20 -4 -20 -8 0 -5 -7 -9 -15 -9 -17 0 -18 6 -7 25 5 7 17 10 28 7 18 -6 18
-6 1 5 -16 10 -23 7 -47 -21 -21 -25 -31 -31 -40 -23 -8 8 -7 16 6 28 9 9 13
20 9 24 -4 4 -10 1 -12 -5 -3 -7 -11 -13 -19 -13 -8 0 -11 6 -8 15 4 8 1 15
-5 15 -14 0 -14 -16 -1 -40 9 -16 7 -18 -16 -16 -14 2 -30 9 -36 17 -7 10 -8
8 -3 -8 9 -31 -7 -29 -22 2 -7 15 -7 25 -1 25 20 0 1 23 -21 27 -21 3 -23 0
-18 -24 4 -16 4 -22 1 -15 -5 10 -9 10 -20 1 -8 -6 -12 -14 -10 -18 3 -4 -4
-7 -14 -7 -15 0 -17 7 -15 36 l3 35 -18 -22 c-9 -12 -20 -19 -24 -16 -3 4 -6
1 -6 -6 0 -18 -20 -3 -30 23 l-9 21 -7 -22 c-6 -23 -24 -32 -24 -13 0 5 -7 7
-16 3 -14 -5 -15 -3 -4 18 10 18 3 15 -25 -13 -21 -21 -41 -36 -44 -32 -3 3 1
9 9 14 13 9 13 10 0 10 -13 0 -13 1 0 10 24 15 2 24 -26 11 -18 -8 -25 -17
-21 -30 3 -13 -2 -21 -15 -24 -15 -4 -18 -2 -13 11 12 29 16 102 5 102 -5 0
-10 -15 -10 -32 -1 -18 -7 -44 -14 -57 -13 -23 -14 -23 -19 -5 -4 10 -2 37 3
59 10 45 7 53 -13 34 -8 -9 -13 -33 -12 -62 1 -26 0 -45 -3 -43 -2 3 -13 -5
-23 -17 -18 -20 -19 -20 -12 -2 3 11 10 25 15 32 6 7 6 17 2 24 -5 8 -13 4
-26 -12 l-19 -24 6 32 c4 21 3 33 -4 33 -6 0 -11 -9 -11 -19 0 -11 -5 -21 -11
-23 -8 -3 -6 -9 4 -20 13 -13 14 -18 4 -26 -15 -13 -39 0 -35 18 2 7 -3 15 -9
17 -8 3 -13 -3 -13 -14 0 -15 -2 -15 -10 -3 -7 12 -12 12 -29 -5 -12 -10 -24
-15 -28 -12 -3 4 -1 7 5 7 6 0 9 7 6 15 -7 19 -19 19 -36 2 -14 -15 -50 -19
-42 -5 3 5 10 6 15 3 5 -4 9 1 9 10 0 8 6 18 13 21 17 6 19 44 3 44 -17 0 -32
-19 -38 -45 -5 -18 -6 -18 -15 5 -6 14 -8 27 -4 30 12 10 31 50 24 50 -5 -1
-17 -12 -28 -25 -17 -21 -20 -22 -32 -7 -7 10 -13 12 -13 6 0 -16 -59 -78 -67
-71 -3 4 0 13 7 22 9 11 9 15 1 15 -7 0 -9 5 -5 11 4 7 1 10 -7 7 -7 -2 -16
-15 -19 -29 -4 -14 -13 -24 -24 -24 -10 0 -24 -11 -31 -25 -8 -14 -15 -20 -15
-15 -8 69 6 99 34 76 10 -9 15 -8 19 2 6 15 -32 43 -42 30 -3 -4 -13 -9 -21
-11 -8 -2 -23 -11 -33 -20 -17 -15 -17 -17 -2 -28 26 -19 -1 -27 -30 -8 -30
20 -32 34 -5 34 30 0 24 18 -7 22 -20 2 -29 9 -31 26 -2 16 -8 22 -18 18 -17
-6 -18 6 -3 21 16 16 -28 28 -46 13 -11 -9 -15 -9 -15 -1 0 6 -7 11 -16 11
-13 0 -15 -6 -9 -27 3 -15 12 -31 18 -35 16 -9 2 -22 -17 -15 -8 3 -18 26 -22
52 -5 39 -10 46 -25 42 -11 -3 -19 -1 -19 4 0 5 -6 9 -14 9 -8 0 -16 5 -18 11
-3 8 -14 6 -36 -5 -18 -9 -32 -12 -32 -7 0 14 28 33 39 27 6 -4 15 3 21 15 13
22 6 39 -10 23 -15 -15 -100 -5 -100 12 0 10 -7 13 -25 8 -16 -4 -25 -2 -25 6
0 6 5 8 10 5 6 -3 10 3 10 14 0 24 -4 25 -29 12 -10 -6 -28 -7 -40 -4 -19 5
-22 11 -17 34 6 32 -10 48 -27 26 -19 -24 -61 -29 -80 -9 -37 39 -41 40 -70
25 -20 -10 -27 -11 -25 -1 2 7 -4 12 -12 13 -10 0 -17 14 -21 40 -3 22 -7 34
-8 28 -2 -18 -21 -16 -21 2 0 8 -5 15 -11 15 -5 0 -8 -4 -5 -9 3 -5 -1 -11 -9
-15 -17 -6 -23 2 -20 31 1 13 -2 23 -7 23 -4 0 -8 -7 -8 -16 0 -13 -3 -14 -14
-5 -11 10 -15 8 -18 -5 -3 -16 -4 -17 -20 -1 -9 9 -22 17 -28 17 -7 0 -10 7
-6 15 3 8 1 15 -4 15 -5 0 -11 -8 -13 -17 -4 -14 -5 -13 -6 4 -1 16 -11 27
-35 37 -18 8 -40 23 -48 35 -8 11 -17 19 -20 16 -2 -3 -11 6 -18 20 -7 14 -32
32 -56 41 -24 9 -42 20 -39 23 7 12 -30 28 -58 25 -16 -1 -27 2 -27 9 0 7 -20
21 -45 31 -30 14 -46 28 -50 45 -5 20 -8 22 -16 10 -7 -11 -9 -10 -9 5 0 20 0
20 -14 1 -15 -21 -11 -38 7 -32 7 2 26 -12 44 -32 17 -20 35 -36 40 -37 21 -2
43 -18 43 -30 0 -8 7 -14 15 -14 8 0 15 -5 15 -11 0 -20 33 -38 70 -39 27 -1
30 -3 16 -9 -14 -5 -16 -10 -8 -15 7 -4 16 -5 20 -2 13 8 33 -9 36 -30 2 -10
18 -29 37 -42 18 -13 34 -29 34 -36 0 -7 12 -28 28 -47 15 -18 27 -38 27 -45
0 -6 11 -19 25 -28 14 -9 25 -23 25 -31 0 -8 5 -15 10 -15 6 0 16 -11 22 -25
6 -14 17 -25 25 -25 7 0 13 -5 13 -11 0 -6 7 -9 15 -5 8 3 15 1 15 -4 0 -5 -8
-11 -17 -13 -15 -4 -16 -5 -2 -6 9 0 20 -12 23 -26 4 -14 12 -24 18 -22 7 1
14 -6 16 -16 4 -21 43 -63 55 -59 4 1 7 -5 7 -13 0 -9 9 -15 24 -15 13 0 26
-7 30 -15 3 -8 1 -15 -4 -15 -6 0 -10 5 -10 10 0 6 -7 10 -15 10 -26 0 2 -40
36 -52 16 -5 29 -14 29 -18 0 -12 59 -70 71 -70 5 0 9 -9 9 -20 0 -11 7 -20
15 -20 8 0 15 -6 15 -14 0 -8 11 -17 25 -20 14 -4 23 -11 20 -15 -7 -12 5 -41
17 -41 17 0 39 -28 26 -32 -7 -3 -5 -7 5 -11 9 -3 17 -2 17 4 0 6 5 7 10 4 6
-4 8 -10 5 -15 -5 -8 43 -39 62 -41 19 -2 14 -9 -6 -9 -13 0 -19 -4 -16 -10 4
-6 12 -9 18 -8 28 5 67 -13 67 -32 0 -13 5 -18 15 -14 9 4 15 0 15 -10 0 -9 7
-16 16 -16 8 0 23 -7 32 -16 15 -15 14 -16 -8 -9 -22 7 -23 6 -11 -9 8 -10 21
-14 32 -11 11 4 19 2 19 -4 0 -6 -4 -11 -10 -11 -5 0 -10 -5 -10 -10 0 -6 3
-9 8 -9 4 1 30 0 57 -1 47 -2 48 -2 17 -10 -43 -10 -53 -20 -16 -16 47 6 120
-21 148 -55 23 -27 31 -29 27 -7 0 4 6 5 14 2 8 -4 12 -10 9 -15 -3 -5 4 -9
15 -9 12 0 21 -4 21 -10 0 -5 7 -10 15 -10 8 0 15 -4 15 -10 0 -5 10 -10 23
-10 16 0 18 -3 9 -9 -14 -9 57 -26 91 -22 9 1 20 -4 23 -13 3 -8 23 -17 45
-21 21 -4 39 -11 39 -16 0 -5 8 -13 18 -16 9 -4 22 -13 28 -21 6 -8 23 -14 37
-14 16 0 27 -6 27 -14 0 -17 12 -18 28 -2 9 9 14 6 21 -13 7 -17 10 -19 10 -6
1 25 20 21 33 -8 6 -14 15 -25 20 -25 5 0 6 4 3 10 -3 5 1 10 10 10 8 0 18 -7
21 -15 4 -8 17 -15 29 -15 13 0 25 -5 27 -12 4 -12 26 -18 66 -20 12 0 22 -7
22 -14 0 -8 4 -14 10 -14 5 0 7 7 4 15 -7 16 11 21 21 6 3 -5 18 -8 34 -6 19
3 31 -1 35 -11 4 -10 13 -13 31 -8 17 4 25 2 25 -7 1 -9 6 -7 15 5 8 11 15 16
15 12 0 -5 6 -4 12 1 7 5 19 8 26 7 6 -1 21 -2 32 -3 13 -1 17 -6 14 -16 -8
-19 31 -21 40 -2 5 9 7 9 12 -1 4 -10 9 -10 19 -2 13 11 52 10 135 -4 19 -4
29 -4 23 0 -7 3 -13 9 -13 14 0 10 33 8 41 -3 9 -12 99 -17 99 -6 0 5 -7 9
-17 9 -9 0 -14 2 -11 5 12 12 59 -7 54 -21 -7 -19 11 -18 21 1 9 16 53 10 53
-7 0 -6 7 -5 15 2 8 7 15 9 15 5 0 -4 6 -3 13 2 6 5 23 10 37 11 18 1 21 -1
10 -8 -12 -8 -12 -10 3 -16 9 -3 24 -1 32 6 12 10 20 9 39 -3 22 -15 24 -14
36 8 7 14 17 22 23 18 5 -3 4 -9 -3 -13 -9 -5 -9 -9 -1 -14 6 -4 11 -4 11 0 0
4 6 -1 14 -12 15 -19 15 -19 30 1 19 24 20 35 4 35 -6 0 -9 2 -6 5 3 3 13 3
22 -1 19 -7 21 -30 4 -37 -7 -2 -10 -8 -6 -12 4 -4 14 0 23 9 17 17 85 22 85
7 0 -5 -5 -11 -12 -13 -15 -5 -1 -28 17 -28 8 0 11 7 8 20 -7 27 11 25 25 -2
10 -23 11 -23 11 5 1 34 18 35 27 2 3 -14 10 -25 16 -25 5 0 6 5 3 10 -3 6 4
10 17 11 23 0 23 0 2 9 -24 9 -41 30 -25 30 5 0 12 -4 15 -9 7 -11 56 -21 56
-10 0 4 -6 10 -12 12 -10 4 -10 6 0 6 8 1 16 -8 19 -19 8 -29 26 -25 21 5 -5
26 6 35 15 13 4 -10 7 -10 15 0 10 14 45 5 36 -9 -3 -5 2 -9 10 -9 9 0 16 -4
16 -10 0 -5 -9 -10 -20 -10 -11 0 -20 5 -20 10 0 6 -4 10 -10 10 -5 0 -10 -4
-10 -10 0 -16 47 -22 71 -9 l23 12 -22 8 c-30 11 -28 23 3 15 14 -4 25 -2 25
4 0 5 -9 10 -20 10 -14 0 -18 5 -13 16 5 13 7 13 14 2 7 -11 11 -10 18 2 16
23 25 3 12 -26 -6 -14 -8 -30 -4 -36 4 -7 10 -2 16 13 7 17 11 20 14 8 2 -10
16 -15 40 -16 25 -1 32 2 22 8 -10 6 -4 9 19 9 18 0 42 5 52 10 15 8 21 6 29
-7 10 -17 10 -17 11 0 0 9 -4 17 -10 17 -19 0 2 29 23 32 15 2 21 9 19 21 -2
10 3 17 13 17 8 0 15 7 15 16 0 10 5 14 15 10 11 -4 17 3 21 23 3 16 11 28 17
28 37 -1 57 4 57 14 0 8 -11 9 -32 5 -28 -5 -30 -4 -14 6 11 6 35 12 55 13 20
2 38 4 40 4 2 1 -2 8 -9 16 -20 24 1 17 22 -7 16 -19 21 -20 29 -8 5 8 8 26 5
40 -3 20 -2 22 7 10 12 -15 69 -22 60 -7 -2 4 1 7 6 7 6 0 10 3 10 8 -3 19 2
26 11 12 7 -12 13 -11 34 10 15 13 26 19 26 13 0 -6 7 -14 16 -17 21 -8 65 4
58 15 -3 5 -2 14 2 20 5 8 9 7 14 -1 5 -8 15 -10 26 -6 18 7 18 8 1 21 -16 12
-12 13 32 11 27 -2 49 1 48 7 -1 5 7 14 18 20 11 7 24 17 28 22 5 6 6 0 2 -11
-4 -17 0 -23 22 -29 29 -8 137 -15 114 -7 -9 3 -9 7 0 18 16 20 -5 19 -35 -1
-24 -16 -76 -12 -76 5 0 12 49 22 72 14 16 -5 20 -3 15 9 -4 11 0 13 16 9 12
-3 26 -10 30 -16 6 -7 7 -4 3 6 -6 20 21 32 50 22 17 -5 18 -5 2 6 -10 6 -25
10 -34 8 -9 -2 -19 4 -22 12 -3 8 -1 12 3 7 5 -4 17 1 27 10 11 10 32 16 51
15 25 -2 29 0 19 10 -17 17 -15 33 3 18 22 -19 37 -1 33 40 -2 27 0 36 9 33 7
-3 13 2 13 11 0 9 -7 16 -15 16 -8 0 -15 5 -15 10 0 15 17 12 36 -7 15 -16 16
-15 9 17 -7 30 -6 33 8 22 12 -10 17 -10 23 -1 4 7 2 15 -4 17 -20 6 -14 42 7
42 25 0 38 20 20 31 -9 6 -18 3 -25 -6 -17 -22 -26 -18 -12 5 11 17 10 22 -2
30 -8 5 -11 12 -7 16 3 4 16 -4 27 -17 20 -24 20 -24 35 -4 9 11 13 25 11 31
-3 7 3 10 15 7 22 -6 25 -19 7 -26 -8 -2 -9 -8 -4 -13 5 -5 11 -4 13 4 3 6 9
12 15 12 17 0 38 28 32 44 -9 23 -23 20 -17 -4 4 -14 0 -20 -12 -20 -12 0 -15
5 -10 20 4 11 2 20 -4 20 -15 0 -14 33 1 48 19 19 29 14 16 -8 -17 -26 -1 -39
17 -13 11 15 26 21 60 21 25 1 45 -3 45 -8 0 -6 -4 -10 -9 -10 -5 0 -11 -9
-14 -20 -3 -11 -1 -20 4 -20 5 0 9 5 9 10 0 6 5 10 11 10 6 0 8 -8 4 -19 -3
-11 -1 -22 5 -26 6 -3 8 -11 5 -16 -4 -5 2 -13 12 -17 10 -4 18 -14 18 -22 0
-8 5 -14 12 -13 9 2 10 -4 3 -23 -7 -17 -7 -23 0 -19 6 3 10 2 10 -4 0 -5 -12
-16 -27 -23 -14 -7 -28 -19 -29 -26 -1 -7 0 -8 3 -2 2 5 14 10 25 10 11 0 28
10 37 22 12 15 20 18 25 10 4 -7 1 -12 -9 -12 -9 0 -15 -7 -13 -17 2 -12 -7
-21 -31 -29 -21 -7 -29 -14 -22 -18 6 -4 21 -4 32 -1 22 7 39 -7 39 -32 0 -19
-50 -16 -57 3 -5 13 -7 13 -14 2 -7 -10 -11 -10 -17 -1 -4 7 -7 -6 -7 -28 0
-28 3 -38 13 -34 7 2 15 -2 19 -10 3 -10 12 -13 24 -10 26 8 24 -3 -3 -25
l-23 -18 30 -8 c26 -6 27 -8 10 -16 -15 -6 -12 -7 11 -4 28 4 32 2 37 -19 3
-17 0 -25 -9 -25 -8 0 -13 6 -11 13 1 7 -6 11 -18 9 -28 -5 -30 -9 -11 -27 25
-25 19 -36 -15 -30 -26 5 -28 3 -17 -9 7 -8 16 -12 19 -10 11 6 31 -24 24 -36
-10 -17 4 -11 27 10 27 25 35 19 11 -9 -9 -12 -27 -21 -39 -21 -18 0 -21 4
-17 23 3 12 3 20 0 17 -24 -22 -10 -110 18 -110 19 0 19 7 0 27 -8 8 -13 19
-10 24 12 18 24 8 34 -29 15 -50 14 -54 -7 -48 -16 5 -18 1 -17 -34 1 -23 -3
-40 -9 -40 -20 -1 27 -30 48 -30 19 0 19 -1 3 -17 -16 -16 -19 -16 -28 -3 -8
11 -12 12 -16 3 -7 -19 -26 -16 -19 3 5 14 4 15 -9 4 -19 -16 -10 -30 18 -28
12 1 33 -2 46 -6 18 -6 22 -5 16 4 -5 9 -4 11 4 6 14 -9 5 -26 -15 -26 -8 0
-12 -5 -9 -10 4 -6 1 -17 -5 -25 -10 -12 -9 -15 3 -15 8 0 21 -7 28 -17 13
-15 12 -15 -17 0 -17 9 -41 13 -52 10 -35 -9 -25 -23 11 -17 24 4 28 3 17 -5
-10 -7 -11 -11 -2 -11 6 0 12 -5 12 -11 0 -7 -11 -9 -28 -5 l-27 5 29 -13 28
-13 -28 -26 c-16 -15 -25 -27 -21 -27 11 0 51 23 59 35 4 6 8 1 9 -10 0 -11 2
-33 4 -48 3 -23 1 -26 -10 -17 -8 7 -19 9 -25 5 -5 -3 -10 -1 -10 4 0 6 7 11
15 11 8 0 15 7 15 15 0 20 -25 9 -44 -20 -15 -23 -15 -24 12 -27 17 -2 28 -10
30 -22 3 -14 0 -17 -12 -12 -9 3 -22 9 -30 12 -7 3 -16 -1 -19 -9 -4 -10 1
-13 18 -9 12 2 26 -1 29 -7 4 -6 0 -11 -11 -11 -15 0 -16 -2 -3 -10 9 -6 11
-13 5 -17 -5 -5 -16 -18 -23 -31 -11 -20 -10 -22 10 -22 34 0 49 -13 38 -30
-14 -21 -12 -30 5 -30 8 0 15 -5 15 -11 0 -6 -6 -9 -13 -6 -23 9 -43 -9 -29
-25 9 -11 9 -17 0 -26 -9 -9 -9 -15 0 -24 9 -9 12 -9 12 0 0 7 5 12 12 12 6 0
3 -9 -8 -21 -10 -12 -18 -30 -16 -40 2 -13 -3 -19 -17 -19 -11 0 -23 -4 -26
-10 -3 -6 4 -10 18 -10 14 0 31 -8 38 -17 12 -15 12 -16 -3 -10 -43 17 -53 19
-39 9 16 -11 7 -32 -15 -32 -8 0 -14 -4 -14 -10 0 -5 6 -10 14 -10 8 0 16 -7
20 -15 4 -11 -1 -15 -17 -15 -20 0 -20 -2 7 -19 17 -11 33 -18 38 -15 4 3 8 0
8 -6 0 -7 -7 -9 -16 -6 -9 3 -25 -1 -37 -9 l-21 -15 22 0 c12 0 22 -4 22 -10
0 -5 -4 -10 -10 -10 -5 0 -10 -6 -10 -14 0 -7 -7 -19 -15 -26 -18 -15 -10 -31
11 -23 13 5 14 -1 8 -33 -4 -22 -11 -42 -17 -45 -5 -4 -9 -18 -9 -33 0 -14 -4
-26 -9 -26 -5 0 -9 5 -9 10 0 6 -4 10 -10 10 -5 0 -8 -10 -6 -22 2 -13 -1 -31
-6 -41 -11 -22 -32 -11 -23 12 4 9 9 28 11 42 3 24 0 27 -38 33 -22 4 -43 5
-45 2 -2 -2 14 -7 37 -11 32 -5 39 -10 30 -20 -8 -9 -8 -14 1 -17 8 -3 6 -10
-6 -22 -11 -10 -14 -21 -9 -24 22 -15 55 -74 50 -87 -7 -20 13 -19 36 2 10 9
18 11 18 5 0 -6 -6 -13 -12 -16 -7 -3 42 -5 109 -4 69 0 120 4 117 9 -3 5 2 9
10 9 18 0 21 16 6 25 -16 10 -1 25 18 19 14 -5 15 -4 2 5 -13 10 -13 12 0 21
10 7 12 12 4 18 -22 14 -27 53 -8 73 9 10 14 19 9 19 -4 0 3 8 16 19 l23 18
-34 -5 c-23 -3 -31 -1 -26 7 4 6 16 11 27 11 10 0 19 6 19 14 0 8 6 17 13 19
9 4 9 6 -1 6 -7 1 -10 6 -7 11 3 6 -1 10 -9 10 -22 0 -20 36 2 45 16 6 16 7
-2 21 -19 13 -18 14 12 14 18 0 32 5 32 10 0 6 -5 10 -11 10 -6 0 -9 6 -6 14
3 8 3 17 -1 21 -4 4 -7 31 -8 61 0 38 3 54 13 54 17 0 17 17 1 23 -7 2 -10 8
-6 12 4 4 14 2 23 -5 10 -8 15 -9 15 -1 0 6 -5 11 -11 11 -5 0 -7 5 -3 12 4 7
3 8 -4 4 -15 -9 -15 -1 -1 25 8 16 7 25 -6 39 -14 15 -14 22 -4 38 7 11 19 18
26 15 7 -3 13 0 13 6 0 6 -6 11 -12 11 -8 0 -9 3 -3 8 18 13 17 42 -2 43 -14
0 -12 3 6 10 17 7 22 15 18 30 -3 12 2 28 12 38 10 10 21 30 25 45 5 22 3 26
-15 26 -18 0 -20 4 -14 23 4 12 7 32 7 45 0 12 4 22 9 22 5 0 9 9 9 19 0 11 5
23 10 26 6 3 10 11 10 16 0 6 -4 8 -9 4 -15 -9 -32 30 -19 43 6 6 11 25 10 42
0 17 4 28 9 25 5 -4 12 2 16 12 4 10 11 22 17 26 7 5 2 7 -12 4 -26 -6 -29 7
-4 23 16 11 16 11 0 6 -23 -7 -23 12 0 37 17 19 16 20 -6 8 -13 -7 -26 -10
-30 -7 -3 3 0 6 6 6 7 0 12 7 12 15 0 8 -5 15 -11 15 -6 0 -3 7 5 16 9 8 16
21 16 27 0 7 4 6 10 -3 8 -12 10 -10 10 8 0 18 -4 22 -19 17 -11 -3 -24 1 -32
11 -12 15 -11 16 10 9 19 -6 22 -4 17 12 -11 34 -13 81 -5 95 7 11 9 11 9 -1
0 -10 4 -11 12 -3 7 6 16 11 21 11 4 1 6 4 5 9 -2 4 -8 6 -15 6 -6 -1 -9 5 -6
12 7 20 20 17 37 -8 12 -17 16 -18 16 -6 0 8 -7 21 -15 28 -8 7 -15 17 -15 22
0 6 7 8 15 4 21 -8 19 11 -2 24 -15 8 -12 9 11 5 35 -5 76 3 76 16 0 5 -6 9
-14 9 -8 0 -17 3 -19 8 -3 4 5 7 18 7 13 0 21 -3 19 -6 -3 -5 92 -39 109 -39
4 0 7 5 7 10 0 6 -6 10 -14 10 -8 0 -17 4 -20 8 -2 4 8 7 22 6 15 -1 37 -3 50
-3 13 -1 22 -7 22 -17 0 -8 4 -13 10 -9 5 3 7 12 3 20 -3 8 0 15 6 15 6 0 11
-8 11 -17 1 -17 1 -17 11 0 12 20 31 13 22 -8 -11 -29 7 -14 22 18 8 17 13 24
11 15 -3 -9 2 -19 10 -22 9 -3 12 -11 8 -17 -4 -7 -1 -10 7 -7 8 3 13 11 12
17 -2 6 4 11 12 11 8 0 15 -5 15 -11 0 -6 7 -8 16 -5 12 5 15 2 10 -10 -4 -12
-2 -15 9 -10 8 3 15 1 15 -4 0 -6 7 -10 15 -10 8 0 15 5 15 10 0 14 27 12 34
-2 5 -11 7 -11 12 0 8 17 24 15 24 -4 0 -8 5 -12 10 -9 6 3 10 1 10 -4 0 -17
50 -13 56 4 5 11 9 11 19 2 7 -6 10 -18 7 -26 -4 -10 5 -12 41 -10 26 2 48 1
49 -3 5 -12 32 -13 34 0 1 6 2 15 3 18 0 4 8 1 16 -6 8 -7 25 -10 37 -7 13 4
29 0 38 -8 9 -8 30 -15 48 -17 18 -1 32 -5 32 -9 0 -7 56 -23 77 -22 7 0 10
-3 7 -8 -3 -5 6 -9 19 -9 14 0 30 -7 37 -15 7 -8 18 -15 24 -15 6 0 23 -7 39
-14 19 -11 27 -12 27 -3 0 7 5 4 11 -5 7 -13 17 -16 39 -11 17 3 30 1 30 -4 0
-14 81 -23 215 -25 85 -2 113 -6 123 -18 8 -8 11 -10 8 -4 -3 7 3 14 14 17 25
6 60 -2 60 -15 0 -5 4 -6 10 -3 5 3 29 0 52 -7 24 -7 48 -12 55 -13 6 0 15 -4
19 -8 4 -4 15 -7 24 -7 23 0 110 -49 116 -65 3 -7 14 -11 25 -8 12 3 19 0 19
-9 0 -15 34 -48 50 -48 6 0 10 -7 10 -15 0 -8 7 -15 15 -15 8 0 15 -7 15 -15
0 -8 5 -15 11 -15 7 0 20 -10 30 -22 11 -13 34 -41 52 -62 17 -22 46 -53 63
-70 17 -17 34 -39 37 -49 4 -10 11 -15 17 -12 5 3 10 -1 10 -10 0 -8 6 -18 14
-21 8 -3 12 -12 9 -20 -3 -8 1 -14 8 -14 6 0 34 -21 60 -47 61 -61 76 -73 89
-73 5 0 10 -4 10 -10 0 -5 7 -7 15 -4 11 5 13 2 8 -12 -5 -13 -3 -16 10 -11 9
3 19 2 23 -4 3 -6 11 -8 17 -6 6 2 23 -10 39 -26 15 -17 28 -25 28 -18 0 6 7
11 15 11 8 0 15 -7 15 -15 0 -8 11 -17 25 -21 14 -3 25 -10 25 -15 0 -10 61
-44 73 -41 5 1 6 -2 2 -7 -3 -6 4 -15 15 -21 11 -6 20 -18 20 -26 0 -10 6 -14
15 -10 8 3 15 1 15 -5 0 -5 16 -17 35 -24 19 -8 39 -24 45 -36 7 -12 18 -18
26 -15 8 3 14 0 14 -7 0 -7 15 -21 33 -32 17 -10 41 -27 51 -37 11 -10 25 -18
32 -18 7 0 14 -4 16 -8 6 -16 68 -53 78 -47 5 3 10 0 10 -7 1 -16 68 -68 88
-68 12 0 12 -3 2 -15 -11 -13 -10 -14 4 -9 11 4 16 1 16 -10 0 -9 8 -16 20
-16 21 0 62 -34 52 -44 -3 -3 0 -6 6 -6 9 0 12 1615 12 6755 l0 6755 -6825 0
-6826 0 2 -2027z m2349 632 c0 -8 5 -15 11 -15 6 0 9 -7 5 -15 -3 -8 -1 -15 4
-15 5 0 13 -12 16 -27 7 -25 8 -25 15 -8 7 17 8 18 8 3 1 -10 6 -18 11 -18 6
0 8 11 4 25 -6 22 -3 25 22 24 17 -1 22 -3 12 -6 -20 -5 -24 -28 -8 -38 6 -3
10 1 10 9 0 19 16 21 26 4 4 -6 2 -14 -4 -16 -7 -2 -12 -10 -12 -18 0 -8 -6
-11 -17 -7 -11 4 -14 3 -9 -6 4 -6 2 -19 -5 -27 -6 -8 -9 -18 -5 -21 4 -4 11
-1 15 6 6 10 10 10 16 1 4 -6 -1 -20 -11 -31 -13 -15 -15 -22 -6 -31 16 -16
15 -28 -3 -28 -8 0 -15 -7 -15 -15 0 -8 4 -15 8 -15 4 0 8 -9 9 -20 1 -11 -4
-20 -13 -20 -8 0 -14 -5 -14 -11 0 -6 6 -9 13 -6 6 2 18 -2 25 -9 8 -9 9 -14
2 -14 -17 0 -42 -29 -35 -40 3 -5 1 -10 -4 -10 -6 0 -11 6 -11 14 0 22 -32 29
-49 11 -15 -15 -14 -16 12 -10 31 8 37 -8 10 -25 -16 -10 -16 -11 2 -7 13 2
27 -5 38 -19 14 -19 15 -23 2 -18 -17 7 -21 -11 -5 -21 14 -9 12 -21 -6 -39
-12 -12 -12 -16 -2 -16 10 0 10 -2 -1 -9 -8 -5 -10 -14 -6 -21 6 -10 2 -12
-16 -7 -13 4 -27 7 -31 7 -5 0 -8 12 -8 26 0 18 -5 25 -17 23 -34 -3 -35 1 -8
23 27 21 29 21 56 5 16 -9 29 -12 29 -6 0 21 -48 32 -82 18 -38 -15 -67 -39
-47 -39 7 0 9 -3 6 -7 -4 -3 7 -15 24 -25 17 -11 29 -25 26 -32 -4 -10 5 -13
34 -11 22 1 36 -2 33 -7 -4 -5 -17 -7 -29 -4 -29 7 -40 -7 -20 -24 17 -14 20
-40 5 -40 -5 0 -10 7 -10 15 0 17 -16 20 -25 6 -3 -5 2 -16 10 -24 17 -17 11
-42 -11 -51 -8 -3 -14 1 -14 10 0 9 5 12 12 8 8 -5 9 -2 5 10 -4 10 -7 22 -7
27 0 10 -40 12 -64 3 -9 -3 -16 -10 -16 -15 0 -4 7 -6 15 -3 10 4 18 -3 25
-22 8 -20 8 -30 1 -32 -6 -2 -11 -8 -11 -14 0 -5 9 -7 19 -3 11 3 23 0 27 -7
4 -6 2 -14 -4 -16 -6 -2 -8 -10 -5 -18 3 -8 -1 -14 -11 -14 -9 0 -16 8 -16 20
0 12 -7 20 -16 20 -10 0 -14 5 -10 15 3 8 9 22 12 30 5 11 -1 15 -20 15 -24 0
-25 -2 -14 -20 11 -17 10 -22 -2 -30 -20 -13 -50 -13 -50 1 0 6 9 8 20 4 14
-5 20 -2 20 9 0 9 -5 16 -12 16 -9 0 -9 3 0 12 19 19 14 31 -13 26 -14 -3 -25
-2 -25 3 0 4 8 9 17 11 16 3 15 6 -5 26 -12 12 -22 31 -22 41 0 21 -19 40 -21
22 -1 -6 -2 -16 -3 -21 0 -6 -8 -15 -16 -20 -18 -11 -77 -13 -66 -2 4 4 18 7
29 7 12 0 21 6 19 13 -1 6 2 12 8 12 5 0 10 7 10 15 0 8 -5 15 -11 15 -8 0
-10 12 -6 35 5 33 4 35 -19 29 -23 -6 -24 -5 -14 20 9 24 7 26 -18 26 -22 1
-24 2 -10 10 23 14 50 2 43 -20 -4 -13 1 -17 25 -17 35 0 37 4 10 27 -20 18
-20 18 27 15 32 -3 41 -1 28 4 -11 5 -23 7 -28 4 -4 -2 -16 -1 -27 2 -27 9
-14 28 16 22 29 -5 41 21 17 39 -10 7 -30 16 -45 19 -42 10 -35 29 8 22 27 -5
35 -3 31 7 -3 8 6 23 19 35 15 13 22 26 17 34 -5 8 -9 7 -11 -5 -4 -22 -38
-23 -59 -2 -14 13 -14 17 -2 24 10 7 16 3 21 -10 12 -31 28 -23 28 13 0 18 5
38 11 44 8 8 4 15 -12 27 -13 8 -19 19 -15 23 5 5 11 2 13 -4 3 -7 11 -13 18
-13 7 0 15 -9 18 -20 3 -13 0 -20 -9 -20 -8 0 -14 -9 -14 -20 0 -11 5 -20 10
-20 6 0 10 5 10 11 0 6 7 17 15 25 16 16 10 43 -14 61 -14 10 -13 14 8 35 l23
23 -7 -24 c-6 -21 -5 -23 14 -18 12 3 28 -1 36 -9 8 -8 25 -14 37 -12 13 2 24
-1 26 -7 1 -5 -16 -11 -38 -12 -25 -2 -39 1 -35 7 3 6 2 10 -3 10 -18 0 -22
-31 -7 -47 14 -14 18 -14 34 1 20 18 41 21 41 6 0 -5 -8 -11 -17 -11 -16 -1
-16 -2 -2 -6 11 -3 15 -11 12 -24 -3 -11 0 -19 7 -19 6 0 11 10 10 23 -4 38
-1 45 20 52 11 4 18 11 14 16 -3 6 2 19 12 30 16 18 16 19 -9 19 -14 0 -29 -4
-32 -10 -8 -13 -45 -13 -45 1 0 6 8 8 19 4 13 -4 24 1 35 17 9 12 16 18 16 13
0 -5 5 -4 11 2 8 8 6 17 -7 32 -19 21 -41 30 -29 11 3 -5 1 -10 -4 -10 -12 0
-14 14 -5 48 7 25 24 30 24 7z m9020 -3935 c0 -5 6 -10 13 -10 21 0 88 -83 83
-102 -2 -10 0 -21 5 -24 6 -3 5 -11 -2 -20 -6 -8 -7 -14 -2 -14 6 0 9 -10 8
-22 -1 -13 -3 -29 -4 -37 0 -8 -4 -11 -7 -8 -4 4 -16 -11 -26 -33 -11 -22 -26
-40 -34 -40 -8 0 -14 -6 -14 -13 0 -7 -12 -20 -27 -29 -16 -10 -66 -53 -111
-98 -46 -44 -88 -80 -93 -80 -5 0 -9 -7 -9 -16 0 -8 -5 -12 -10 -9 -6 4 -23
-6 -38 -22 -34 -35 -78 -55 -106 -48 -11 2 -15 2 -8 -1 20 -9 14 -27 -8 -21
-11 3 -27 -1 -34 -9 -18 -18 -26 -18 -26 0 0 8 -10 16 -22 18 -12 2 -23 10
-25 18 -4 12 -3 12 5 1 7 -10 11 -10 17 -1 4 7 2 16 -5 20 -7 4 -14 23 -15 41
-1 19 0 28 2 22 8 -21 21 -15 21 10 0 32 6 53 20 70 10 12 10 16 0 20 -8 3 -6
6 5 6 11 1 17 7 15 19 -2 9 3 16 10 14 6 -1 11 1 10 5 -4 14 54 93 68 93 8 0
14 7 14 15 0 9 7 18 15 21 8 4 15 11 15 18 0 6 12 22 25 35 14 13 28 34 31 46
3 13 15 25 26 28 11 3 18 10 15 14 -3 5 7 20 24 33 16 14 29 30 29 36 0 7 9
14 20 17 13 3 18 11 14 20 -4 12 3 17 28 20 64 8 88 7 88 -3z m-3160 -478 c0
-9 47 -8 56 1 7 7 28 -17 80 -94 19 -28 32 -54 29 -57 -10 -10 -179 -1 -205
11 -27 13 -52 55 -43 71 4 5 11 -1 17 -15 9 -22 11 -20 14 21 2 27 10 50 19
58 19 14 33 16 33 4z m375 -173 c101 0 126 -2 111 -11 -11 -6 -39 -11 -63 -10
-27 0 -41 -4 -37 -10 4 -7 0 -7 -12 0 -11 6 -30 10 -44 10 -14 0 -45 3 -68 6
-33 5 -42 4 -36 -5 5 -9 2 -10 -9 -6 -13 5 -17 1 -17 -17 0 -39 -29 -88 -49
-81 -12 4 -28 -6 -49 -31 -23 -27 -36 -34 -51 -29 -22 7 -28 29 -11 40 6 3 10
-2 10 -12 0 -15 2 -16 10 -3 5 8 12 11 16 7 9 -8 34 11 34 26 0 7 -4 7 -12 -1
-7 -7 -17 -12 -22 -12 -6 1 0 10 14 22 l25 21 -30 -7 c-16 -4 -32 -11 -35 -15
-3 -4 -14 -11 -24 -14 -10 -4 0 11 23 34 25 23 49 38 57 35 8 -3 24 -1 36 4
l23 9 -23 0 c-14 1 -20 5 -17 12 4 5 19 9 33 7 19 -2 27 2 27 12 0 18 24 31
45 23 8 -2 74 -4 145 -4z m2 -53 c4 -3 -3 -6 -15 -6 -11 0 -28 -7 -37 -16 -15
-16 -19 -15 -47 6 -18 13 -28 17 -26 9 3 -8 -4 -24 -15 -36 -11 -13 -16 -23
-10 -23 6 0 16 7 24 16 8 10 22 14 41 10 15 -3 30 -1 33 5 4 5 14 9 23 7 10
-1 23 1 30 5 8 6 12 1 12 -13 0 -12 -4 -18 -10 -15 -13 8 -13 -1 2 -42 10 -29
10 -36 -2 -43 -12 -8 -10 -13 3 -9 1 0 14 -4 29 -10 20 -8 28 -7 32 5 3 8 17
14 31 14 15 0 24 4 21 9 -3 5 1 14 8 20 10 8 16 9 21 1 3 -5 2 -10 -4 -10 -5
0 -8 -8 -7 -17 2 -10 -4 -24 -13 -30 -13 -11 -9 -12 27 -7 35 5 42 4 42 -10 0
-9 -5 -16 -12 -16 -6 0 -9 -2 -6 -5 8 -9 38 6 32 16 -3 5 -1 9 5 9 6 0 8 6 5
14 -3 9 4 16 22 20 14 4 28 5 30 4 6 -7 -8 -48 -15 -44 -4 3 -13 1 -21 -4 -12
-8 -13 -13 -3 -29 10 -16 9 -19 -12 -23 -16 -4 -22 -1 -18 9 3 7 0 13 -6 13
-6 0 -11 -3 -11 -7 0 -5 -11 -13 -24 -19 -20 -9 -26 -9 -30 2 -3 8 -10 14 -16
14 -6 0 -9 -4 -6 -9 7 -11 -65 -21 -79 -11 -5 3 -29 6 -52 6 -23 -1 -39 2 -37
6 3 5 -4 8 -15 8 -12 0 -21 5 -21 10 0 6 -8 10 -17 10 -15 0 -16 -2 -3 -10 11
-7 4 -10 -25 -10 -32 1 -36 3 -22 11 9 5 17 15 17 22 0 9 -2 9 -8 0 -9 -14
-62 -28 -62 -16 0 5 5 14 12 21 9 9 9 12 1 12 -7 0 -15 -4 -18 -10 -10 -16
-35 -12 -35 6 0 10 6 14 14 11 8 -3 17 0 20 8 8 22 -17 24 -44 3 -18 -14 -26
-16 -29 -7 -2 7 1 15 8 17 6 2 11 9 11 16 0 18 33 42 58 42 17 0 22 -5 19 -18
-4 -13 0 -18 16 -17 12 0 16 3 10 6 -21 8 -15 20 10 17 12 -1 25 -3 30 -3 4
-1 7 -7 7 -15 0 -14 29 -30 38 -21 3 3 0 5 -6 5 -25 0 -10 17 23 27 24 8 35 8
35 1 0 -6 6 -5 15 2 8 7 15 16 15 21 0 9 -43 8 -50 -1 -9 -12 -60 -21 -60 -10
0 5 6 10 14 10 17 0 29 27 15 36 -5 3 -15 1 -22 -5 -7 -5 -25 -14 -40 -20 -25
-10 -26 -9 -23 12 3 12 5 29 5 38 1 21 43 40 62 28 20 -13 29 -11 29 5 0 11 8
12 36 6 19 -5 38 -11 41 -14z m2517 -127 c-3 -5 -2 -9 3 -8 23 4 33 -3 33 -24
0 -13 3 -27 7 -31 4 -4 6 -22 5 -41 -2 -18 1 -36 7 -39 6 -4 8 -13 5 -21 -4
-8 -10 -12 -15 -9 -12 7 -7 -139 5 -148 6 -4 8 -10 4 -13 -3 -3 -12 1 -21 9
-17 17 -27 11 -27 -15 0 -12 5 -16 15 -13 11 5 15 -1 15 -21 0 -15 -4 -24 -10
-20 -6 4 -8 11 -5 16 4 5 2 9 -4 9 -6 0 -7 -15 -4 -35 4 -24 2 -35 -6 -35 -7
0 -9 -4 -6 -10 3 -5 1 -10 -4 -10 -6 0 -11 9 -11 20 0 11 5 20 11 20 5 0 7 6
3 12 -5 7 -9 19 -10 28 -1 8 -5 27 -9 43 -5 20 -4 27 7 27 18 0 42 43 35 62
-3 7 -6 3 -6 -10 -1 -12 -8 -25 -16 -29 -20 -7 -26 -1 -28 26 -1 14 -8 21 -22
22 -11 0 -14 3 -7 6 6 2 12 9 12 14 0 4 -7 6 -15 3 -8 -4 -15 -1 -15 5 0 6 5
11 10 11 6 0 10 4 10 8 0 5 -13 7 -30 4 -18 -2 -31 0 -31 7 -3 26 -4 30 -11
37 -5 4 -8 2 -8 -4 0 -21 -16 -13 -17 9 -1 14 3 19 13 15 8 -3 14 -1 14 4 0 6
-6 10 -12 11 -10 0 -10 2 0 6 6 2 12 9 12 14 0 6 -6 7 -12 4 -7 -4 -2 2 11 13
16 13 20 21 12 26 -8 5 -7 12 4 23 9 8 19 13 22 9 4 -3 13 0 22 8 27 24 80 28
65 5z"/>
<path d="M18 9403 c-21 -5 -24 -29 -5 -36 9 -4 9 -6 0 -6 -7 -1 -13 -8 -13
-16 0 -18 17 -20 22 -3 2 6 10 8 16 4 9 -5 8 -11 -3 -22 -8 -9 -19 -12 -25 -9
-5 3 -10 -1 -10 -9 0 -18 26 -22 32 -6 5 16 78 25 78 11 0 -7 -4 -10 -9 -6 -5
3 -21 0 -35 -6 -20 -10 -23 -15 -15 -26 14 -16 -3 -18 -32 -2 -18 9 -20 8 -17
-13 2 -18 10 -24 36 -26 17 -2 32 -8 32 -14 0 -5 -7 -8 -15 -5 -8 4 -17 2 -20
-3 -4 -6 3 -10 15 -10 12 0 18 -5 15 -10 -3 -6 -17 -7 -31 -4 -13 3 -24 2 -25
-2 0 -5 -2 -22 -4 -39 -2 -16 -1 -25 3 -20 11 15 57 11 86 -9 22 -14 30 -15
42 -5 8 6 14 16 14 22 0 7 -4 7 -12 -1 -7 -7 -16 -12 -20 -12 -11 0 -10 27 0
32 5 2 5 14 1 28 -7 24 -7 24 -8 3 -1 -22 -21 -34 -21 -12 0 5 -5 7 -12 3 -7
-4 -2 6 10 23 23 33 28 53 12 53 -5 0 -7 -7 -4 -15 4 -8 2 -15 -4 -15 -8 0
-22 22 -22 36 0 2 12 4 28 4 32 0 60 -16 49 -27 -5 -4 -12 -1 -17 7 -8 12 -10
10 -10 -7 0 -22 17 -29 58 -24 6 1 12 -3 12 -9 0 -9 -17 -14 -47 -13 -7 1 -13
-3 -13 -8 0 -5 5 -9 11 -9 5 0 7 -4 4 -10 -3 -5 -1 -10 4 -10 6 0 11 5 11 11
0 7 10 9 25 5 19 -5 23 -3 19 9 -4 8 -1 22 5 29 14 17 0 29 -23 20 -17 -6 -17
-5 -21 58 -2 39 11 52 43 42 16 -5 16 -5 -1 6 -9 6 -21 8 -26 5 -6 -3 -13 1
-18 9 -7 12 -10 12 -21 0 -8 -9 -9 -14 -2 -14 6 0 9 -4 5 -9 -3 -5 -1 -12 5
-16 23 -14 7 -25 -37 -24 -27 1 -39 4 -28 6 41 10 47 24 23 50 -19 20 -20 26
-8 33 8 5 11 12 7 17 -7 6 -21 -8 -29 -29 -4 -10 -48 2 -48 13 0 5 12 9 26 9
22 0 25 2 14 15 -13 15 -21 16 -52 8z"/>
<path d="M223 9153 c-7 -2 -13 -11 -13 -18 0 -7 -7 -16 -16 -19 -12 -5 -14 -1
-9 15 5 15 3 20 -6 17 -7 -2 -16 -17 -20 -32 -7 -26 -7 -27 24 -20 28 6 30 5
18 -9 -7 -9 -10 -21 -6 -27 3 -5 -1 -10 -10 -10 -10 0 -15 5 -12 14 4 9 -4 13
-24 14 -16 0 -45 10 -63 22 -26 15 -36 17 -40 8 -5 -11 -7 -11 -12 0 -5 10 -9
10 -20 1 -8 -6 -14 -14 -14 -18 0 -10 39 -11 45 -1 8 12 43 0 49 -17 4 -9 1
-22 -5 -29 -9 -11 -8 -14 4 -14 8 0 17 6 20 13 3 9 7 9 17 0 15 -14 5 -33 -20
-33 -10 0 -20 -7 -24 -15 -3 -8 -14 -15 -24 -15 -11 0 -25 7 -32 15 -16 19
-30 19 -30 1 0 -7 9 -16 20 -19 20 -5 28 -27 10 -27 -5 0 -10 5 -10 10 0 6 -4
10 -10 10 -19 0 -10 -38 10 -43 11 -3 20 -2 20 1 0 12 94 6 123 -8 23 -11 30
-11 40 0 10 10 9 12 -3 8 -19 -7 -60 8 -60 21 0 5 10 11 23 13 12 2 21 7 20
13 -3 16 -20 17 -35 2 -16 -17 -58 -32 -58 -21 0 12 51 54 66 54 8 0 13 4 10
9 -6 9 36 31 59 31 9 0 15 -10 15 -25 0 -15 6 -25 15 -25 12 0 13 4 3 26 -9
20 -9 30 0 45 7 10 8 19 3 19 -6 0 -13 -4 -16 -10 -11 -18 -22 -11 -22 15 0
13 2 23 6 21 3 -2 15 3 26 11 19 15 19 15 -4 8 -20 -6 -23 -4 -18 9 4 9 5 16
4 15 -1 0 -8 -3 -14 -6z"/>
<path d="M5520 8629 c0 -17 -8 -19 -66 -19 -46 0 -70 -5 -81 -15 -19 -20 -30
-11 -13 10 18 22 -8 20 -32 -2 -15 -13 -21 -14 -27 -5 -6 10 -15 10 -35 2 -15
-5 -39 -10 -53 -10 -18 0 -24 -4 -19 -15 6 -18 -7 -19 -33 -4 -13 9 -22 9 -37
0 -18 -12 -18 -12 4 -8 12 3 22 1 22 -4 0 -8 -6 -10 -42 -13 -7 -1 -16 -5 -20
-10 -3 -5 -21 -10 -40 -11 -18 -1 -46 -5 -63 -9 -25 -6 -27 -5 -12 4 11 7 33
14 50 17 18 3 34 8 37 12 3 4 14 11 25 16 41 17 -11 16 -56 -1 -24 -9 -52 -16
-61 -17 -10 -1 -18 -4 -18 -8 0 -8 -46 -22 -78 -24 -16 -1 -21 3 -17 13 4 10
0 12 -12 7 -49 -20 -77 -24 -95 -14 -11 6 -26 8 -34 5 -9 -3 -12 -1 -9 5 4 5
15 9 24 7 10 -2 18 2 19 7 1 6 -15 9 -36 8 -39 -2 -39 -2 15 34 10 7 -3 3 -29
-9 -33 -15 -44 -25 -35 -31 8 -5 5 -6 -8 -3 -11 3 -37 -3 -59 -15 -21 -11 -45
-18 -53 -15 -25 10 -200 -100 -226 -141 -18 -29 -61 -61 -76 -56 -14 4 -14 3
-1 -6 12 -8 12 -11 -3 -17 -9 -3 -14 -10 -11 -15 8 -14 -12 -10 -25 4 -6 8 -7
18 -3 22 7 8 -54 -26 -93 -52 -25 -16 -38 -17 -29 0 4 6 -1 5 -12 -4 -28 -24
-146 -91 -139 -79 11 18 -3 10 -37 -20 -18 -16 -37 -29 -43 -28 -5 1 -23 -4
-40 -11 -16 -6 -36 -14 -42 -16 -7 -2 -13 -10 -13 -16 0 -8 4 -8 13 -2 6 6 25
13 41 17 27 7 28 6 15 -10 -8 -10 15 -2 58 20 76 38 99 44 86 24 -4 -7 -8 -16
-8 -20 0 -3 -4 -10 -9 -15 -5 -5 -6 -3 -2 5 12 20 -4 14 -45 -19 -21 -17 -39
-28 -39 -25 0 9 -83 -25 -102 -42 -10 -8 -18 -20 -18 -25 0 -6 10 -1 23 10 12
12 38 24 57 27 l35 7 -52 -50 c-29 -27 -53 -55 -53 -62 0 -8 6 -6 18 4 10 10
24 17 30 17 7 0 12 4 12 8 0 12 68 48 75 40 3 -3 -10 -16 -30 -28 -32 -20 -57
-55 -59 -85 -1 -5 -13 -16 -28 -23 -16 -7 -28 -19 -28 -27 0 -8 -11 -22 -25
-31 -14 -9 -30 -25 -36 -36 -6 -12 14 -2 55 27 36 25 66 43 66 39 0 -10 -58
-64 -70 -64 -5 0 -10 -10 -10 -22 0 -18 6 -15 45 25 24 26 53 47 62 47 10 0
29 3 43 6 17 4 8 -4 -25 -26 -27 -19 -65 -47 -83 -64 -18 -17 -34 -30 -35 -28
-6 10 -35 -12 -30 -24 3 -7 -2 -16 -10 -20 -9 -3 -18 -11 -20 -18 -7 -18 27
-12 86 14 26 12 52 20 58 18 5 -2 -11 -12 -36 -23 -24 -11 -45 -24 -45 -29 0
-4 7 -5 15 -2 8 3 22 9 30 12 8 3 15 1 15 -4 0 -6 -24 -16 -52 -22 -90 -18
-111 -44 -26 -31 26 4 45 4 43 0 -3 -4 -23 -10 -45 -14 -22 -4 -43 -11 -46
-16 -3 -6 4 -8 18 -5 66 15 151 27 156 22 3 -3 -4 -6 -16 -6 -12 0 -22 -5 -22
-11 0 -6 9 -9 20 -6 11 3 20 0 20 -6 0 -7 5 -6 11 3 8 11 12 12 16 3 6 -15 53
-18 53 -3 0 6 9 10 20 10 11 0 20 -4 20 -10 0 -5 -6 -10 -14 -10 -8 0 -16 -5
-18 -11 -2 -6 -16 -11 -31 -11 -16 0 -26 -5 -24 -12 2 -6 17 -10 34 -8 17 2
34 -2 38 -7 3 -7 18 -8 33 -4 24 6 26 5 13 -10 -12 -15 -11 -17 7 -17 22 0 35
-26 36 -75 1 -25 5 -29 22 -27 12 2 24 -4 27 -13 4 -8 2 -15 -3 -15 -6 0 -10
-5 -10 -10 0 -6 11 -8 26 -4 18 5 25 3 21 -3 -4 -6 0 -13 7 -16 8 -3 17 -1 20
6 3 9 7 9 14 -1 5 -7 16 -10 27 -6 14 6 17 4 12 -9 -9 -23 19 -23 31 0 9 15
11 14 23 -5 17 -28 33 -29 26 -2 -6 22 3 26 20 9 13 -13 83 -2 83 13 0 10 37
6 73 -8 14 -5 18 -3 15 12 -2 15 3 19 26 17 16 -1 33 -8 38 -15 6 -10 10 -10
16 -2 5 9 11 7 21 -4 12 -13 12 -14 0 -10 -7 2 -20 -1 -27 -9 -11 -11 -11 -16
2 -28 19 -19 55 -33 82 -30 23 2 50 -30 34 -40 -6 -3 -10 1 -10 10 0 24 -24
12 -28 -13 -3 -20 1 -22 37 -22 30 0 41 -4 41 -15 0 -8 4 -15 10 -15 5 0 7 7
4 15 -5 11 -2 13 10 9 9 -3 13 -10 10 -15 -3 -5 3 -9 13 -9 11 0 28 -6 38 -14
10 -7 27 -11 37 -8 10 2 24 0 31 -6 13 -11 201 -9 228 2 10 4 20 3 24 -3 3 -6
-3 -12 -14 -12 -36 -2 -41 -4 -41 -11 0 -5 0 -10 0 -12 0 -2 16 0 35 4 20 5
33 4 29 -1 -3 -5 -14 -9 -25 -9 -11 0 -18 -4 -15 -8 7 -11 119 9 128 22 5 8 8
7 8 -1 0 -9 13 -8 46 4 26 9 49 12 53 7 14 -20 84 -15 138 10 63 31 74 32 67
9 -5 -15 -4 -16 5 -3 11 16 81 23 81 9 0 -5 8 -6 18 -3 14 5 14 3 -2 -10 -11
-9 -16 -16 -11 -16 17 0 44 32 38 46 -3 8 0 14 6 14 6 0 11 -9 11 -20 0 -11 5
-20 11 -20 6 0 8 7 5 17 -6 15 -5 15 11 1 10 -8 25 -19 33 -23 13 -8 13 -6 2
7 -7 9 -9 19 -4 22 13 7 22 -4 22 -26 0 -12 7 -18 23 -18 20 1 20 2 5 13 -9 7
-20 26 -24 43 l-7 29 36 -28 c38 -29 53 -34 41 -15 -4 6 3 4 17 -5 35 -25 40
-21 35 28 -2 25 0 48 5 51 5 3 10 0 10 -5 1 -6 3 -15 4 -21 1 -5 3 -23 4 -40
0 -16 6 -30 12 -30 5 0 7 5 4 10 -11 18 5 31 20 16 8 -8 23 -13 32 -11 10 2
23 4 30 4 6 1 15 10 18 21 5 15 12 19 26 15 18 -6 28 10 10 17 -11 4 5 48 19
48 5 0 10 -4 10 -9 0 -5 9 -7 20 -4 11 3 20 9 20 14 0 4 9 7 20 6 14 -1 18 -6
14 -19 -3 -11 0 -18 7 -18 8 0 5 -7 -6 -20 -19 -21 -7 -28 13 -8 6 6 15 8 19
3 5 -4 2 -10 -4 -12 -7 -3 -13 -11 -13 -19 0 -8 -4 -14 -10 -14 -5 0 -14 -9
-20 -21 -11 -20 -10 -20 20 3 18 13 44 49 61 85 28 60 59 90 79 78 6 -3 10 -1
10 4 0 18 -36 12 -64 -10 -20 -16 -30 -19 -39 -10 -8 8 -6 11 9 11 20 0 54 32
54 50 0 15 11 12 32 -7 29 -26 32 -7 5 29 -25 32 -25 34 -7 55 17 21 18 21 23
3 3 -13 1 -17 -9 -13 -22 8 -16 -14 11 -42 31 -30 35 -31 35 -5 0 11 -4 20
-10 20 -5 0 -10 5 -10 11 0 8 4 8 13 1 15 -12 57 2 58 20 1 7 0 21 -1 32 -1
10 3 15 8 12 12 -7 24 19 14 29 -10 9 -9 115 1 115 4 0 0 11 -9 25 -15 23 -15
25 0 19 21 -8 20 0 -1 33 -15 22 -15 26 -3 21 19 -7 21 42 2 64 -10 13 -9 16
9 21 16 4 19 9 11 24 -13 23 -13 93 -1 93 5 0 9 -8 10 -17 0 -15 2 -15 8 2 5
13 3 23 -6 30 -12 9 -10 16 12 39 l26 29 -25 -5 c-20 -4 -26 -1 -26 13 0 13 5
17 17 12 14 -5 15 -1 9 28 l-6 34 26 -28 c30 -33 44 -29 20 5 -20 29 -20 56 0
97 15 30 15 33 -1 45 -10 7 -15 18 -11 24 3 6 -2 13 -13 17 -27 8 -31 27 -10
49 17 17 19 18 19 3 0 -9 -4 -17 -10 -17 -5 0 -10 -4 -10 -10 0 -12 27 -13 34
-2 3 5 2 19 -1 31 -4 16 -11 21 -24 18 -10 -3 -23 1 -28 7 -8 10 -2 13 26 12
22 -1 38 4 41 12 3 9 -3 12 -14 10 -13 -2 -24 8 -36 32 -14 27 -18 30 -18 14
0 -16 -6 -21 -26 -21 -14 0 -28 6 -31 14 -3 8 -12 12 -20 9 -8 -3 -17 3 -22
17 -5 13 -16 28 -24 35 -12 10 -14 9 -12 -5 1 -10 7 -31 14 -47 10 -25 9 -32
-4 -45 -15 -15 -15 -14 -9 2 4 11 1 17 -8 17 -8 0 -23 8 -32 19 -16 17 -16 19
6 24 27 8 15 24 -22 29 -14 2 -25 10 -25 18 0 9 -20 21 -50 31 -27 10 -42 17
-32 18 33 2 10 31 -28 35 -19 2 -75 28 -75 36 0 4 -27 15 -60 25 -56 17 -87
35 -60 35 21 0 0 17 -22 19 -13 1 -34 2 -47 4 -36 3 -37 -20 -2 -28 47 -10 50
-28 4 -19 -21 4 -46 10 -57 14 -17 6 -17 7 -1 23 15 16 15 17 0 17 -9 0 -14 4
-11 9 9 14 -45 23 -122 21 -37 -1 -69 -1 -72 0 -3 1 -20 3 -37 5 -27 2 -33 -1
-33 -16z m125 -930 c-4 -6 2 -13 13 -16 11 -3 23 -12 26 -20 3 -8 1 -11 -4 -8
-6 3 -10 -3 -10 -14 0 -12 7 -21 15 -21 18 0 20 -27 3 -43 -13 -12 -21 -14
-112 -24 -43 -4 -48 -3 -42 12 3 9 6 20 6 24 0 4 10 18 23 31 12 14 22 27 22
30 0 3 8 16 18 30 17 24 17 24 17 2 0 -13 6 -22 15 -22 8 0 15 5 15 11 0 5 -4
7 -10 4 -5 -3 -10 3 -10 14 0 12 5 21 11 21 5 0 7 -5 4 -11z m-425 -219 c0 -5
7 -10 16 -10 8 0 13 4 10 8 -3 5 1 9 9 9 8 0 15 -4 15 -9 0 -4 -4 -8 -8 -8
-18 0 -57 -43 -44 -47 6 -3 12 -13 12 -24 0 -10 5 -19 10 -19 6 0 10 -6 10
-12 -1 -7 -13 2 -29 20 -15 17 -29 32 -32 32 -2 0 -4 -16 -4 -36 -1 -28 2 -32
10 -20 9 12 14 6 25 -32 14 -47 14 -47 18 -14 2 17 8 32 13 32 5 0 7 -11 5
-24 -3 -19 -1 -23 11 -19 9 4 14 2 10 -3 -3 -6 -1 -16 4 -24 7 -11 8 0 4 35
-6 45 3 62 9 18 3 -15 12 -18 55 -16 28 1 51 -2 51 -7 0 -19 22 -10 53 23 18
19 40 36 50 40 9 3 17 12 18 19 0 7 4 4 8 -7 5 -11 4 -25 -1 -32 -7 -9 -7 -13
1 -13 21 0 11 -19 -19 -33 -26 -14 -31 -14 -38 -1 -7 13 -10 13 -23 -2 -8 -10
-9 -15 -2 -11 6 4 18 1 25 -7 11 -12 18 -11 50 8 36 20 42 31 39 66 -2 13 -1
13 8 0 9 -13 13 -12 29 5 10 11 24 29 30 40 8 14 11 16 12 5 0 -8 -14 -29 -30
-47 -31 -33 -39 -50 -18 -37 7 4 8 3 4 -4 -4 -7 -14 -12 -22 -12 -8 0 -17 -7
-20 -15 -4 -8 -10 -15 -16 -15 -5 0 -25 -12 -44 -26 -30 -23 -34 -24 -40 -9
-4 9 -10 13 -13 8 -11 -16 -82 -53 -102 -53 -10 0 -19 -6 -19 -12 0 -10 -2
-10 -8 0 -7 10 -16 9 -43 -5 -36 -19 -81 -25 -72 -10 7 12 -58 -2 -75 -16 -7
-5 -15 -7 -19 -3 -3 3 -1 6 5 6 7 0 12 7 12 15 0 11 -5 12 -26 5 -17 -7 -32
-6 -46 1 -17 9 -23 8 -30 -4 -5 -9 -15 -14 -22 -11 -8 3 -17 0 -21 -6 -6 -9
-9 -9 -15 1 -10 15 -121 19 -113 4 3 -5 0 -4 -8 3 -14 13 -7 23 26 35 6 3 7 8
3 12 -5 5 -19 3 -33 -3 -19 -9 -25 -9 -25 1 0 7 -8 13 -17 14 -26 2 -90 21
-75 22 6 1 12 8 12 16 0 8 5 15 11 15 6 0 9 -7 6 -14 -7 -17 14 -12 48 11 27
18 34 16 29 -9 -3 -15 1 -12 11 9 11 24 23 34 50 39 19 3 35 10 35 14 0 4 16
10 35 12 40 5 40 3 20 -46 -10 -23 -11 -36 -5 -36 6 0 16 14 22 30 6 17 23 37
40 46 17 9 27 11 24 5 -4 -7 1 -11 14 -11 13 0 24 9 30 26 13 34 13 41 -2 26
-13 -13 -48 -16 -48 -4 0 4 17 15 38 24 l37 17 -40 -4 c-38 -5 -38 -4 -10 5
17 6 40 8 52 5 12 -3 32 -1 45 4 18 8 10 10 -38 10 -33 1 -68 7 -78 14 -15 11
-11 12 26 11 29 -2 35 0 18 4 -18 5 -7 8 40 13 36 3 68 6 73 7 4 1 7 -2 7 -8z"/>
<path d="M2208 7562 l-27 -3 2 -80 c1 -43 5 -79 10 -79 4 0 7 -12 7 -28 0 -15
7 -38 16 -50 8 -12 12 -27 9 -32 -4 -6 -1 -17 5 -25 6 -8 9 -23 5 -35 -4 -11
-2 -20 4 -20 6 0 8 -6 5 -14 -3 -8 -1 -17 5 -20 6 -4 8 -13 5 -20 -3 -7 2 -16
10 -19 9 -4 16 -16 16 -27 0 -12 4 -19 9 -16 5 4 7 -2 4 -13 -3 -10 0 -22 6
-25 6 -4 11 -17 11 -29 0 -18 2 -19 10 -7 8 12 10 11 10 -7 0 -13 4 -23 9 -23
5 0 12 -10 16 -22 4 -14 8 -18 12 -10 7 19 23 14 23 -7 0 -10 7 -24 15 -31 9
-7 14 -19 11 -27 -3 -8 1 -16 9 -19 8 -4 12 -10 9 -15 -3 -5 -1 -9 4 -9 5 0
15 11 22 25 8 14 16 21 20 15 3 -5 7 16 7 48 1 31 2 57 3 57 1 0 3 12 4 27 1
14 -2 24 -7 21 -5 -3 -7 3 -3 13 3 11 15 60 27 109 12 50 28 97 35 105 13 15
16 60 4 60 -3 0 -14 14 -23 30 -10 17 -25 30 -33 30 -8 0 -18 8 -21 17 -7 17
-13 24 -85 89 -38 34 -138 71 -180 66z"/>
<path d="M2944 6853 c3 -7 -1 -13 -8 -13 -13 0 -36 -41 -36 -65 0 -7 -5 -15
-12 -17 -8 -3 -8 -9 0 -24 6 -10 12 -15 12 -10 0 5 7 3 15 -4 12 -10 13 -15 3
-21 -8 -5 -4 -11 15 -20 15 -7 27 -18 27 -25 0 -8 6 -11 15 -8 8 4 15 2 15 -4
0 -6 -6 -12 -12 -15 -10 -3 -10 -7 1 -20 7 -9 11 -23 8 -31 -4 -9 2 -17 14
-21 34 -11 130 94 119 130 -1 6 -2 22 -1 38 1 16 -4 27 -11 27 -10 0 -10 2 -1
8 9 5 2 22 -24 59 l-36 52 -54 -1 c-40 -1 -52 -5 -49 -15z"/>
<path d="M10588 6833 c-1 -16 -2 -36 -1 -45 0 -10 -4 -18 -9 -18 -4 0 -8 12
-8 28 0 15 -4 33 -9 41 -5 8 -7 -5 -3 -34 5 -45 4 -47 -17 -40 -12 4 -21 2
-21 -4 0 -6 5 -11 10 -11 6 0 10 -7 10 -16 0 -8 5 -12 10 -9 6 3 10 1 10 -4 0
-6 -5 -11 -11 -11 -8 0 -8 -5 1 -15 7 -8 16 -12 21 -9 5 3 6 -3 2 -12 -4 -11
-8 -13 -11 -6 -2 7 -8 12 -14 12 -6 0 -3 -9 7 -20 11 -13 14 -20 6 -20 -7 0
-19 -7 -27 -15 -23 -23 3 -19 37 6 16 11 29 16 29 11 0 -14 -22 -30 -55 -38
-25 -6 -27 -8 -10 -14 28 -10 75 8 68 26 -3 8 0 14 7 14 7 0 9 8 5 20 -5 15
-2 20 11 20 15 0 16 2 2 18 -18 20 -18 78 0 75 21 -5 13 29 -8 34 -21 5 -30
53 -10 53 6 0 10 -10 10 -22 0 -17 3 -19 12 -10 8 8 8 15 -2 27 -20 24 -40 18
-42 -12z"/>
<path d="M8173 5802 c19 -21 23 -127 4 -115 -7 4 -8 0 -4 -11 5 -14 3 -17 -8
-12 -8 3 -15 1 -15 -5 0 -6 -6 -9 -12 -6 -7 2 -20 -1 -28 -8 -39 -33 -91 -55
-109 -46 -12 7 -22 6 -29 -1 -6 -6 -26 -13 -44 -15 -18 -2 -34 -8 -36 -13 -5
-15 -42 -12 -42 3 0 7 -4 6 -10 -3 -9 -17 -80 -19 -127 -4 -13 3 -23 2 -23 -3
0 -7 -16 -7 -42 -3 -24 5 -47 6 -52 2 -5 -3 -6 2 -3 12 6 14 3 16 -16 11 -72
-22 -177 -95 -177 -124 0 -6 -13 -19 -28 -29 -16 -9 -27 -23 -25 -29 3 -7 -2
-13 -11 -13 -9 0 -16 -5 -16 -11 0 -6 -15 -9 -37 -7 -22 2 -38 -2 -40 -9 -3
-7 -29 -17 -59 -24 -34 -8 -50 -15 -42 -20 7 -5 -4 -8 -27 -9 -112 -3 -141 -6
-146 -13 -3 -5 -30 -4 -60 1 -30 6 -56 7 -59 4 -7 -10 -50 -10 -50 0 0 4 -11
8 -25 8 -14 0 -45 10 -68 22 -23 12 -67 24 -97 26 -30 2 -58 9 -62 15 -4 7
-11 7 -22 -3 -14 -11 -19 -10 -34 4 -19 17 -68 22 -74 8 -1 -4 -36 -5 -76 -2
-40 3 -75 4 -77 2 -1 -2 -40 -5 -86 -6 -46 -2 -92 -7 -102 -11 -19 -8 -17 -32
2 -27 7 1 10 -2 6 -7 -5 -9 64 -61 82 -61 12 -1 49 -34 56 -50 3 -10 6 -11 6
-2 1 14 74 -28 105 -60 10 -11 24 -17 31 -14 7 2 16 -2 19 -10 3 -9 11 -12 17
-9 6 4 17 -2 25 -14 9 -12 20 -19 25 -15 6 3 17 -2 24 -12 13 -17 16 -17 25
-4 8 13 10 12 10 -5 0 -17 2 -17 10 -5 8 12 10 11 10 -7 0 -13 5 -23 10 -23 6
0 10 5 10 10 0 6 9 1 21 -11 17 -17 23 -18 36 -8 12 11 14 10 11 -5 -2 -14 7
-22 37 -33 22 -7 50 -11 63 -8 16 4 22 1 22 -11 0 -11 6 -15 20 -11 15 4 22
-1 26 -20 4 -16 2 -28 -7 -34 -7 -4 -11 -11 -7 -14 3 -4 18 6 33 22 18 18 25
22 22 11 -4 -12 2 -23 18 -34 14 -9 25 -23 25 -30 0 -8 4 -14 10 -14 5 0 7 8
3 18 -5 14 -3 15 7 5 11 -10 11 -15 0 -28 -17 -21 -13 -24 48 -27 45 -3 54 -6
58 -25 6 -21 32 -39 42 -28 3 3 0 5 -6 5 -7 0 -12 7 -12 16 0 13 3 14 15 4 21
-17 83 -30 88 -17 2 7 9 6 23 -1 13 -7 25 -7 37 -1 13 8 15 7 11 -6 -5 -11 -2
-14 10 -9 9 3 16 13 16 22 0 8 3 12 7 9 3 -4 12 -2 19 4 10 8 22 8 46 0 24 -9
33 -8 39 1 4 7 24 12 43 11 20 -1 39 4 42 9 4 6 -2 8 -15 3 -11 -3 -21 -2 -21
3 0 5 20 12 45 15 25 2 54 12 65 22 14 12 27 15 46 11 24 -6 26 -5 14 9 -12
14 -10 15 20 10 26 -5 31 -3 27 10 -8 18 19 21 27 3 5 -10 7 -10 12 0 3 6 13
12 23 12 18 0 41 18 41 33 0 5 -7 1 -16 -7 -8 -9 -20 -16 -27 -16 -6 0 -1 9
11 20 28 26 40 25 44 -4 3 -23 4 -24 23 -9 16 13 17 15 3 10 -12 -4 -18 -1
-18 8 0 8 6 12 14 9 7 -3 30 5 50 16 36 22 47 40 24 40 -7 0 -5 5 5 11 9 5 17
17 17 24 0 8 5 15 11 15 5 0 7 -4 4 -10 -3 -5 -2 -10 2 -10 5 0 14 15 22 33 7
17 15 27 18 20 2 -7 11 -9 19 -6 10 4 12 0 8 -11 -4 -10 -12 -15 -18 -13 -7 3
-12 -4 -12 -15 0 -18 2 -18 23 6 12 14 20 33 17 41 -4 8 1 17 10 21 9 3 13 10
10 16 -3 5 -12 4 -20 -3 -12 -10 -13 -9 -8 5 4 11 13 15 25 11 16 -5 18 -2 13
24 -4 20 -2 31 5 31 6 0 11 -5 11 -11 0 -5 5 -7 10 -4 6 3 10 14 10 25 0 10 7
20 15 24 8 3 15 1 15 -3 0 -5 -5 -11 -12 -13 -6 -2 -8 -10 -4 -16 13 -22 28 0
23 33 -5 29 -3 32 14 28 10 -3 19 -1 19 4 0 13 74 35 94 27 9 -3 16 -1 16 5 0
6 -7 11 -15 11 -8 0 -15 5 -15 10 0 6 3 9 8 9 4 -1 18 0 32 1 l25 2 -24 7 -23
6 28 14 c16 7 37 17 46 22 10 5 18 4 20 -3 3 -7 10 -8 17 -4 11 7 11 10 0 17
-12 8 -12 11 1 18 8 5 18 7 22 5 4 -3 8 0 8 5 0 6 9 11 19 11 14 0 19 6 18 20
-1 11 -6 20 -12 20 -14 0 -13 33 2 52 23 30 27 42 10 35 -9 -3 -19 -2 -22 4
-4 5 -3 9 2 8 20 -4 27 2 13 12 -12 8 -9 10 13 6 22 -3 27 -1 25 12 -2 8 -14
21 -27 27 -21 11 -22 13 -5 17 19 5 19 5 0 6 -15 1 -16 4 -7 15 10 11 8 16 -8
21 -23 7 -29 25 -8 25 6 1 1 10 -12 20 -22 19 -22 20 -3 20 11 0 22 7 26 15 4
12 2 13 -12 7 -17 -9 -67 9 -57 20 3 3 -2 11 -10 18 -11 9 -19 10 -27 2 -7 -7
-19 -7 -36 -1 -25 10 -25 9 -9 -9z"/>
<path d="M8686 4635 c-13 -10 -24 -11 -37 -5 -11 7 -19 6 -21 -1 -4 -12 -36
-15 -67 -5 -15 5 -21 5 -17 -2 8 -14 -24 -25 -38 -13 -15 13 -28 3 -43 -31 -8
-17 -22 -28 -42 -33 -18 -4 -31 -13 -31 -21 0 -11 -6 -13 -21 -9 -16 5 -19 4
-14 -6 6 -9 2 -11 -13 -7 -12 4 -25 1 -30 -5 -9 -15 -34 -16 -45 -2 -5 6 -6 0
-2 -12 3 -12 1 -24 -5 -28 -5 -3 -10 1 -10 9 0 20 -19 20 -48 0 -16 -11 -22
-12 -20 -3 3 15 -31 19 -49 6 -6 -4 -14 -3 -18 3 -3 6 -11 8 -16 5 -5 -4 -9
-1 -9 6 0 10 -3 10 -12 1 -7 -7 -25 -12 -41 -12 -16 0 -26 -4 -22 -10 3 -5 2
-10 -4 -10 -5 0 -11 5 -13 10 -2 6 -17 13 -33 16 -16 3 -31 7 -34 10 -2 2 -11
-2 -19 -8 -21 -18 -52 -20 -52 -4 0 9 -9 14 -20 13 -12 -1 -18 -7 -16 -14 3
-7 -1 -10 -10 -6 -7 3 -14 0 -14 -6 0 -6 -5 -11 -11 -11 -5 0 -7 5 -3 11 13
22 -20 28 -51 10 -24 -14 -35 -15 -49 -7 -14 8 -20 8 -23 -2 -3 -7 -14 -17
-26 -23 -20 -9 -20 -9 -5 4 16 12 14 14 -18 12 -20 -1 -40 -10 -48 -20 -10
-14 -21 -17 -44 -12 -23 5 -30 3 -26 -6 3 -8 -5 -12 -22 -12 -31 2 -94 -25
-94 -40 0 -5 -5 -3 -10 5 -7 11 -12 12 -18 3 -4 -6 -21 -13 -37 -15 -17 -2
-33 -7 -36 -11 -3 -4 -19 -9 -35 -11 -16 -2 -30 -5 -31 -6 -2 -1 -15 -3 -30
-5 -16 -1 -37 -5 -47 -10 -14 -6 -17 -5 -12 3 4 7 2 12 -3 12 -6 0 -11 -3 -11
-7 0 -5 -38 -8 -85 -8 -63 -1 -85 3 -85 12 0 8 -11 13 -27 12 -25 0 -26 -1 -8
-9 22 -9 21 -10 -13 -14 -19 -2 -22 1 -19 16 4 14 2 16 -6 9 -19 -15 -91 -26
-83 -12 4 6 2 11 -3 11 -6 0 -11 -7 -11 -15 0 -19 -10 -19 -40 2 -22 16 -23
16 -17 0 8 -22 3 -21 -19 0 -16 17 -17 16 -12 -10 5 -25 4 -26 -11 -14 -9 8
-21 12 -28 10 -6 -2 -14 0 -17 6 -4 6 -13 8 -21 5 -8 -4 -12 -10 -9 -15 3 -5
-2 -9 -10 -9 -9 0 -16 7 -16 15 0 8 -5 15 -11 15 -6 0 -9 -6 -6 -14 4 -10 0
-12 -14 -9 -10 3 -19 1 -19 -4 0 -12 -30 -10 -49 2 -11 6 -13 4 -8 -9 6 -14 3
-15 -13 -6 -11 6 -31 8 -45 4 -17 -4 -25 -2 -25 6 0 10 -3 10 -14 1 -8 -7 -20
-11 -28 -10 -7 1 -20 1 -28 0 -13 -1 -13 -2 0 -11 10 -6 3 -8 -22 -3 -29 4
-38 2 -38 -8 0 -11 -2 -11 -10 1 -7 11 -10 12 -10 2 0 -9 -7 -11 -20 -7 -13 4
-31 0 -45 -9 -14 -9 -25 -12 -25 -7 0 10 -52 8 -114 -4 -30 -6 -37 -5 -31 5 5
9 2 10 -13 6 -13 -4 -22 -1 -26 9 -3 9 -11 13 -18 9 -8 -5 -9 -2 -5 9 3 9 2
19 -3 22 -6 4 -10 0 -10 -7 0 -7 -11 -2 -24 12 -13 14 -21 28 -19 33 2 4 -5 7
-17 7 -12 0 -19 3 -17 8 3 4 -11 7 -31 8 -21 1 -56 7 -79 14 -24 7 -50 9 -59
6 -16 -6 -15 -8 2 -22 15 -12 13 -12 -15 1 -26 13 -36 14 -45 4 -8 -9 -7 -10
7 -5 13 4 17 2 15 -6 -3 -7 -13 -13 -23 -13 -13 0 -22 -11 -29 -33 -6 -23 -14
-31 -24 -27 -9 3 -12 0 -9 -9 4 -10 -2 -16 -16 -18 -14 -2 -21 -9 -19 -19 1
-11 -7 -19 -22 -23 -14 -3 -28 -15 -31 -26 -3 -11 -12 -20 -20 -20 -19 0 -26
-27 -10 -40 15 -13 9 -44 -7 -34 -6 4 -8 -2 -3 -15 5 -17 2 -21 -14 -21 -11 0
-23 -5 -27 -12 -4 -7 -3 -8 4 -4 8 5 11 -3 8 -26 -4 -31 6 -48 29 -48 6 0 3 4
-5 10 -8 5 -11 12 -7 16 3 4 13 1 21 -5 12 -10 21 -9 48 5 18 10 38 17 45 16
6 -1 14 2 18 8 10 16 25 12 19 -5 -5 -12 0 -14 26 -9 22 5 35 3 42 -7 7 -10 8
-8 3 7 -5 19 0 22 36 27 24 3 46 13 51 21 9 16 29 22 27 9 -4 -23 3 -25 17 -5
14 21 41 22 29 1 -8 -12 8 -12 21 0 15 15 64 1 57 -16 -5 -11 -1 -14 13 -9 19
5 47 -5 45 -18 -1 -3 2 -5 5 -3 3 1 10 -6 15 -16 6 -9 14 -15 20 -12 5 4 9 1
9 -4 0 -6 5 -11 11 -11 5 0 7 5 4 10 -3 6 -1 10 6 10 7 0 9 -8 6 -21 -4 -15
-2 -19 10 -15 8 3 17 6 19 6 2 0 4 7 4 15 0 8 5 15 10 15 6 0 10 -7 10 -16 0
-14 1 -14 16 0 15 16 34 21 34 10 0 -14 -22 -44 -29 -39 -10 5 -24 -25 -16
-33 3 -3 16 1 30 8 21 11 31 34 26 63 0 4 4 7 9 7 6 0 9 -12 8 -26 -2 -22 1
-27 20 -29 12 -1 22 2 22 7 0 4 -4 8 -9 8 -6 0 -3 12 5 28 7 15 14 33 14 40 0
6 5 12 10 12 6 0 10 8 11 18 0 9 3 12 5 5 3 -7 0 -21 -6 -33 -8 -16 -8 -24 4
-35 17 -17 30 -20 21 -5 -4 6 5 10 21 10 23 0 26 3 22 25 -3 13 -1 22 4 19 4
-3 12 5 17 18 7 18 10 20 15 7 4 -8 0 -31 -8 -50 l-14 -34 29 -1 c31 -1 46
-10 36 -20 -4 -4 -13 -2 -20 4 -8 7 -17 9 -20 6 -12 -12 4 -24 29 -24 15 0 23
-4 19 -10 -4 -6 -16 -8 -28 -4 -18 5 -20 4 -9 -7 10 -11 21 -11 58 -1 25 7 51
10 57 6 7 -3 3 2 -7 10 -11 9 -28 14 -38 10 -31 -9 -20 13 12 25 17 5 30 15
30 21 0 6 -4 9 -9 6 -20 -12 -91 -16 -91 -5 0 6 -7 9 -15 5 -19 -7 -19 -2 0
34 20 38 33 38 29 1 -3 -25 0 -28 16 -24 13 3 20 14 20 29 0 18 6 24 23 26 61
4 75 3 71 -4 -3 -4 0 -8 5 -8 6 0 11 4 11 8 0 4 50 9 110 9 61 1 110 -2 110
-7 0 -6 10 -6 24 -1 13 5 39 6 59 2 26 -6 39 -5 49 6 12 11 28 12 89 3 41 -5
108 -10 150 -9 81 0 114 -15 102 -47 -4 -12 -1 -15 13 -12 14 2 19 12 19 34
-1 29 1 31 42 31 23 0 40 -4 37 -8 -7 -12 88 -1 100 11 7 7 5 10 -5 10 -8 0
-19 -4 -25 -10 -5 -5 -15 -6 -24 0 -11 7 -9 11 13 21 21 10 30 9 50 -4 22 -14
26 -14 40 0 8 8 20 12 27 8 9 -6 9 -10 -1 -17 -14 -10 -1 -9 91 6 19 4 29 4
23 0 -18 -8 -16 -27 2 -20 8 3 15 1 15 -4 0 -6 -7 -10 -15 -10 -8 0 -15 -5
-15 -11 0 -6 14 -3 33 8 43 26 77 34 77 20 0 -8 4 -7 9 2 5 7 14 10 21 6 6 -4
18 1 26 11 11 15 13 16 8 3 -3 -10 -1 -20 5 -24 6 -3 11 -2 11 3 0 5 7 9 15 9
12 0 11 -5 -5 -19 -24 -22 -26 -29 -5 -22 8 4 15 1 15 -5 0 -6 -4 -11 -10 -11
-5 0 -9 -6 -7 -12 1 -8 -9 -12 -31 -11 -29 1 -30 0 -17 -14 21 -20 10 -33 -25
-28 -17 2 -28 0 -25 -6 4 -5 15 -9 26 -9 10 0 19 -5 19 -11 0 -7 -11 -9 -26
-6 -18 3 -33 -2 -45 -14 -17 -17 -23 -16 -20 3 2 16 -27 -5 -39 -28 -13 -23
-27 -29 -59 -25 -7 2 -10 -2 -6 -8 3 -7 -3 -11 -15 -11 -12 0 -18 4 -15 10 6
10 -22 3 -40 -10 -5 -4 -25 -11 -43 -15 -18 -3 -30 -11 -26 -16 3 -5 -2 -9
-11 -9 -10 0 -13 5 -9 13 5 8 2 8 -9 -2 -9 -7 -17 -10 -17 -6 0 4 -7 2 -16 -6
-13 -10 -17 -10 -25 2 -5 8 -9 19 -9 26 0 6 -4 15 -10 18 -6 4 -7 -1 -3 -11 4
-10 0 -22 -11 -30 -19 -13 -50 -8 -40 7 3 5 -1 9 -9 9 -10 0 -13 -7 -10 -19 4
-16 1 -19 -16 -14 -12 3 -21 9 -21 15 0 5 -7 5 -17 -1 -10 -5 -34 -7 -53 -4
-19 3 -39 4 -45 4 -5 -1 -30 -3 -55 -6 -25 -2 -57 -5 -72 -8 -15 -2 -25 -1
-23 4 3 4 1 10 -4 13 -5 4 -12 2 -16 -3 -3 -6 -11 -8 -18 -6 -7 2 -45 6 -84
10 -65 5 -72 4 -66 -11 4 -12 2 -15 -8 -12 -8 3 -13 10 -12 15 1 6 -17 10 -40
10 -23 0 -51 4 -61 8 -13 6 -17 5 -13 -2 4 -6 0 -14 -9 -17 -22 -8 -24 -8 -18
7 3 9 -4 12 -23 11 -15 -1 -28 -2 -28 -3 0 -1 -37 -3 -83 -5 -51 -3 -80 0 -76
6 3 5 16 8 27 7 48 -3 62 0 49 13 -7 7 -12 20 -12 30 0 10 -7 18 -16 18 -8 0
-12 5 -9 10 4 6 -10 10 -34 10 -23 0 -41 -5 -41 -11 0 -5 4 -8 9 -5 5 3 12 -2
15 -11 6 -14 9 -15 16 -3 7 11 13 11 32 3 13 -7 17 -12 9 -12 -11 -1 -11 -4
-1 -16 11 -13 8 -15 -16 -17 -16 0 -35 -1 -41 -1 -7 1 -11 -3 -8 -7 3 -5 -1
-10 -7 -13 -7 -2 -1 -8 15 -12 15 -4 27 -11 27 -16 0 -5 -12 -4 -26 1 -34 13
-34 13 -34 -9 0 -26 17 -36 35 -21 8 7 15 8 15 3 0 -5 11 -10 25 -11 14 -1 25
3 25 8 0 6 -4 10 -10 10 -5 0 -10 6 -10 14 0 9 14 15 40 18 31 3 40 0 40 -12
0 -13 1 -13 10 0 7 12 13 13 28 4 10 -6 37 -15 61 -19 30 -5 40 -10 32 -18 -7
-7 -15 -6 -27 4 -12 9 -15 10 -10 2 5 -9 0 -13 -16 -13 -18 0 -20 2 -8 10 11
7 7 10 -20 11 -19 1 -40 1 -47 0 -6 -1 -14 3 -18 9 -8 13 -45 13 -45 -1 0 -5
4 -8 9 -5 4 3 6 -6 3 -19 -4 -24 12 -55 29 -55 5 0 6 7 3 15 -4 11 -2 13 9 9
22 -8 29 -34 15 -52 -8 -10 -9 -13 -1 -9 6 4 13 4 16 0 2 -5 2 -3 1 4 -4 14
22 43 39 43 8 0 7 -4 -1 -12 -14 -14 -16 -52 -2 -43 6 3 7 -1 4 -9 -7 -19 7
-21 25 -3 11 10 13 9 8 -4 -8 -23 30 -52 59 -45 26 7 31 -3 12 -22 -7 -7 -8
-12 -2 -12 6 0 15 5 22 12 9 9 12 8 12 -8 0 -11 5 -25 12 -32 9 -9 9 -15 0
-24 -9 -9 -12 -8 -12 5 0 9 -5 17 -11 17 -5 0 -7 5 -4 10 3 6 1 10 -4 10 -15
0 -14 -12 5 -38 8 -12 13 -26 10 -31 -3 -5 1 -11 9 -15 10 -3 15 1 15 14 0 10
5 22 11 26 8 5 10 -1 7 -21 -6 -28 16 -65 37 -65 5 0 3 5 -5 11 -12 8 -8 10
15 6 17 -3 37 -7 45 -10 8 -2 12 -2 8 0 -5 3 -8 9 -8 15 0 6 6 5 15 -2 12 -10
13 -16 4 -27 -7 -7 -9 -17 -5 -21 4 -4 12 1 17 10 5 10 16 15 25 11 8 -3 23 2
33 11 16 14 19 15 24 2 4 -9 -3 -17 -16 -21 -20 -6 -20 -8 -4 -12 10 -3 26 2
35 10 15 13 19 13 30 1 7 -8 10 -19 6 -26 -4 -7 -3 -8 4 -4 7 4 12 16 12 26 0
13 5 17 15 14 8 -4 15 -1 15 5 0 6 5 11 11 11 5 0 7 -5 3 -12 -5 -7 0 -9 14
-6 13 4 23 0 27 -10 5 -14 7 -14 15 -2 7 10 10 11 10 3 0 -16 81 -13 92 2 4 6
8 -1 8 -15 1 -23 2 -24 14 -7 7 9 19 17 26 17 7 0 10 7 5 18 -5 14 -4 15 6 5
18 -18 32 -16 25 4 -6 15 -4 14 14 -2 20 -18 21 -18 36 1 8 10 13 13 9 7 -4
-8 0 -13 9 -13 9 0 16 -8 16 -19 0 -11 5 -23 11 -27 8 -4 9 8 4 42 -5 41 -4
46 7 33 16 -20 48 -32 48 -18 0 6 9 9 20 6 17 -4 20 -2 16 16 -3 12 -3 16 0
10 3 -7 12 -13 20 -13 8 0 14 -4 14 -10 0 -5 5 -10 10 -10 6 0 10 7 10 16 0 8
4 13 9 9 5 -3 12 -1 16 4 11 18 44 -26 38 -50 -4 -14 -2 -20 4 -16 6 4 10 23
9 42 -1 36 10 47 20 20 5 -12 10 -13 20 -4 8 6 14 8 14 3 0 -4 9 2 21 14 18
20 22 21 40 8 21 -14 59 -11 59 6 0 5 10 4 21 -3 17 -9 23 -8 30 2 6 10 10 7
18 -11 9 -24 10 -23 11 10 1 19 4 29 7 23 5 -15 43 1 56 23 4 8 19 14 31 14
13 0 26 7 29 14 3 8 22 18 41 22 20 3 36 10 36 15 0 5 -7 6 -15 3 -8 -4 -15
-1 -15 5 0 6 5 11 10 11 6 0 10 9 10 20 0 14 7 20 22 20 21 0 21 0 2 16 -18
15 -18 15 4 9 13 -4 22 -2 22 4 0 6 6 11 13 11 19 0 34 32 32 69 l-2 35 23
-27 c28 -33 41 -36 20 -5 -23 32 -20 42 6 24 12 -9 27 -16 33 -16 5 0 2 5 -7
11 -10 5 -18 15 -18 20 0 6 4 8 9 5 16 -11 40 5 34 22 -5 12 -2 14 12 8 18 -7
18 -6 -1 15 -16 19 -17 22 -2 16 10 -3 20 -2 24 4 3 6 12 8 20 5 8 -3 14 -1
14 4 0 6 -4 10 -10 10 -5 0 -10 5 -10 11 0 6 9 9 20 6 23 -6 27 11 5 19 -8 4
-15 11 -15 16 0 6 7 5 15 -2 9 -7 16 -11 18 -9 1 2 7 13 13 24 7 12 20 19 33
18 13 -2 20 1 16 7 -3 6 -13 10 -22 10 -14 0 -14 3 2 20 10 11 24 20 31 20 8
0 11 6 7 16 -4 10 1 17 16 21 11 3 21 12 21 20 0 10 6 12 20 8 14 -4 20 -2 20
9 0 8 12 22 28 30 15 8 21 15 15 16 -18 0 -16 20 2 20 8 0 15 4 15 9 0 4 15
13 33 18 17 5 31 15 29 22 -1 7 2 10 7 7 5 -4 12 -2 16 3 3 6 13 7 22 4 11 -4
14 -3 9 5 -4 7 -2 12 3 12 6 0 11 -4 11 -10 0 -5 7 -10 15 -10 8 0 15 4 15 9
0 10 39 27 53 23 4 -1 7 5 7 13 0 8 8 14 18 13 55 -4 67 2 87 47 12 28 25 43
32 40 7 -2 13 0 13 5 0 6 -6 10 -13 10 -26 0 -67 25 -67 41 0 10 16 23 38 32
26 12 31 16 16 16 -29 1 -47 24 -32 39 6 6 9 15 5 18 -4 4 -13 -7 -20 -25 -12
-27 -16 -30 -26 -18 -9 12 -9 16 1 20 9 4 6 11 -11 25 -15 12 -20 22 -13 26 6
3 13 2 17 -3 8 -13 37 -2 32 13 -2 6 -10 11 -18 12 -39 3 -40 3 -29 25 16 28
2 39 -17 14 -9 -12 -17 -15 -20 -9 -2 6 -9 18 -16 27 -10 14 -14 14 -31 2z"/>
<path d="M8106 314 c-3 -8 -10 -12 -16 -9 -5 3 -10 -3 -10 -14 0 -14 -5 -19
-15 -15 -9 4 -15 0 -15 -10 0 -17 -26 -22 -32 -6 -5 15 -43 1 -57 -23 -14 -21
-14 -21 14 -3 14 10 29 15 32 13 9 -9 -30 -45 -44 -40 -7 3 -20 0 -28 -7 -14
-11 -19 -7 -16 12 0 4 -6 5 -15 1 -13 -5 -13 -7 1 -23 8 -9 12 -20 9 -23 -4
-4 -15 3 -25 14 -10 12 -20 16 -24 9 -10 -16 -28 -12 -22 5 4 8 2 17 -4 20 -5
4 -9 3 -8 -2 4 -24 -3 -43 -16 -43 -8 0 -15 5 -15 11 0 5 -5 7 -12 3 -8 -5 -5
-12 9 -24 15 -12 18 -21 12 -31 -7 -12 -9 -11 -9 2 0 9 -7 20 -16 23 -22 8
-24 8 -24 -9 0 -9 -6 -12 -17 -9 -15 5 -15 4 -3 -5 8 -5 11 -13 7 -17 -4 -4
-12 -3 -18 3 -8 8 -18 4 -35 -14 -23 -25 -24 -25 -24 -4 0 11 -4 21 -9 21 -15
0 -23 -18 -11 -25 15 -9 12 -25 -4 -25 -8 0 -17 8 -19 17 -3 11 -5 6 -7 -12
-1 -16 -4 -24 -7 -17 -2 6 -10 9 -16 5 -6 -4 -8 0 -4 10 3 10 2 17 -3 17 -6 0
-10 -8 -10 -17 0 -9 -12 -30 -27 -45 l-27 -28 243 1 243 1 -6 26 c-6 26 -6 26
9 8 8 -11 15 -23 15 -28 0 -4 5 -8 10 -8 6 0 10 9 10 20 0 11 5 20 10 20 6 0
10 -9 10 -20 0 -11 4 -20 10 -20 12 0 9 42 -4 51 -10 8 1 29 15 29 5 0 9 -12
9 -26 0 -16 5 -24 13 -21 6 2 12 10 12 17 0 7 9 16 20 21 16 6 14 8 -12 8 -22
1 -33 6 -33 16 0 18 21 20 37 4 9 -9 16 -8 27 4 14 13 12 16 -18 21 -37 7 -55
33 -30 43 18 7 66 -16 58 -29 -3 -4 5 -8 17 -8 12 0 19 3 16 7 -4 3 -1 13 6
21 10 13 9 15 -5 9 -10 -3 -20 -2 -24 4 -3 6 4 13 16 16 16 4 18 8 9 14 -9 5
-5 10 14 14 51 13 25 31 -38 27 l-20 -2 20 15 c11 8 25 19 32 25 7 5 18 10 25
10 9 0 9 3 -2 10 -9 6 -17 5 -21 -2 -4 -6 -25 -12 -46 -14 -21 -1 -49 -5 -62
-9 -18 -6 -22 -5 -19 6 3 8 11 13 17 12 6 -2 11 6 11 17 0 24 -6 26 -14 4z"/>
</g>
</svg>
